<svg width="22" height="16" viewBox="0 0 22 16" fill="none" xmlns="http://www.w3.org/2000/svg">
<path fill-rule="evenodd" clip-rule="evenodd" d="M10.542 6C10.0116 6 9.50285 6.21071 9.12778 6.58579C8.75271 6.96086 8.54199 7.46957 8.54199 8C8.54199 8.53043 8.75271 9.03914 9.12778 9.41421C9.50285 9.78929 10.0116 10 10.542 10C11.0724 10 11.5811 9.78929 11.9562 9.41421C12.3313 9.03914 12.542 8.53043 12.542 8C12.542 7.46957 12.3313 6.96086 11.9562 6.58579C11.5811 6.21071 11.0724 6 10.542 6ZM7.71356 5.17157C8.46371 4.42143 9.48113 4 10.542 4C11.6029 4 12.6203 4.42143 13.3704 5.17157C14.1206 5.92172 14.542 6.93913 14.542 8C14.542 9.06087 14.1206 10.0783 13.3704 10.8284C12.6203 11.5786 11.6029 12 10.542 12C9.48113 12 8.46371 11.5786 7.71356 10.8284C6.96342 10.0783 6.54199 9.06087 6.54199 8C6.54199 6.93913 6.96342 5.92172 7.71356 5.17157Z" fill="#CCCCCC"/>
<path fill-rule="evenodd" clip-rule="evenodd" d="M2.05401 8C3.28951 11.4964 6.62522 14 10.542 14C14.4597 14 17.7945 11.4965 19.03 8C17.7945 4.50354 14.4597 2 10.542 2C6.62522 2 3.28951 4.50359 2.05401 8ZM0.0459352 7.7004C1.44708 3.23851 5.61577 0 10.542 0C15.4693 0 19.6369 3.23856 21.0381 7.7004C21.0993 7.89544 21.0993 8.10456 21.0381 8.2996C19.6369 12.7614 15.4693 16 10.542 16C5.61577 16 1.44708 12.7615 0.0459352 8.2996C-0.0153117 8.10456 -0.0153117 7.89544 0.0459352 7.7004Z" fill="#CCCCCC"/>
</svg>
