<svg width="16" height="17" viewBox="0 0 16 17" fill="none" xmlns="http://www.w3.org/2000/svg">
<path d="M6.33906 8.3584L0.38125 2.40527C-0.059375 1.96465 -0.059375 1.25215 0.38125 0.816211C0.821875 0.380273 1.53437 0.380273 1.975 0.816211L8.725 7.56152C9.15156 7.98809 9.16094 8.67246 8.75781 9.11309L1.97969 15.9053C1.75938 16.1256 1.46875 16.2334 1.18281 16.2334C0.896875 16.2334 0.60625 16.1256 0.385938 15.9053C-0.0546872 15.4646 -0.0546872 14.7521 0.385938 14.3162L6.33906 8.3584Z" fill="#BC332D"/>
<path d="M13.2395 8.3584L7.28164 2.40527C6.84102 1.96465 6.84102 1.25215 7.28164 0.816211C7.72227 0.380273 8.43477 0.380273 8.87539 0.816211L15.6254 7.56152C16.052 7.98809 16.0613 8.67246 15.6582 9.11309L8.88008 15.9053C8.65977 16.1256 8.36914 16.2334 8.0832 16.2334C7.79727 16.2334 7.50664 16.1256 7.28633 15.9053C6.8457 15.4646 6.8457 14.7521 7.28633 14.3162L13.2395 8.3584Z" fill="#BC332D"/>
</svg>
