<svg width="29" height="26" viewBox="0 0 29 26" fill="none" xmlns="http://www.w3.org/2000/svg">
<path d="M27.418 18.331H8.98838L9.91373 16.4463L25.2887 16.4185C25.8087 16.4185 26.2543 16.0471 26.3472 15.5333L28.4764 3.61523C28.5321 3.30266 28.4485 2.9808 28.2443 2.73631C28.1433 2.61598 28.0174 2.51906 27.8753 2.45225C27.7331 2.38545 27.5781 2.35038 27.4211 2.34945L7.86187 2.28446L7.69475 1.49838C7.58953 0.997023 7.13768 0.631836 6.62395 0.631836H1.84247C1.55273 0.631836 1.27485 0.746935 1.06998 0.951812C0.865099 1.15669 0.75 1.43456 0.75 1.7243C0.75 2.01404 0.865099 2.29192 1.06998 2.49679C1.27485 2.70167 1.55273 2.81677 1.84247 2.81677H5.73883L6.46921 6.28915L8.26729 14.9948L5.95237 18.7736C5.83216 18.9359 5.75975 19.1285 5.74334 19.3298C5.72693 19.5311 5.76718 19.7329 5.85953 19.9125C6.04522 20.2808 6.41969 20.5129 6.83439 20.5129H8.77793C8.3636 21.0632 8.1398 21.7335 8.1404 22.4224C8.1404 24.174 9.56401 25.5977 11.3157 25.5977C13.0673 25.5977 14.4909 24.174 14.4909 22.4224C14.4909 21.7322 14.2619 21.0607 13.8534 20.5129H18.8392C18.4248 21.0632 18.201 21.7335 18.2016 22.4224C18.2016 24.174 19.6252 25.5977 21.3769 25.5977C23.1286 25.5977 24.5522 24.174 24.5522 22.4224C24.5522 21.7322 24.3232 21.0607 23.9146 20.5129H27.4211C28.0215 20.5129 28.5135 20.0239 28.5135 19.4204C28.5117 19.131 28.3955 18.854 28.1903 18.6499C27.985 18.4458 27.7074 18.3312 27.418 18.331ZM8.31681 4.43845L26.1367 4.49725L24.3912 14.2707L10.3934 14.2954L8.31681 4.43845ZM11.3157 23.4003C10.7772 23.4003 10.3377 22.9609 10.3377 22.4224C10.3377 21.8839 10.7772 21.4444 11.3157 21.4444C11.8542 21.4444 12.2936 21.8839 12.2936 22.4224C12.2936 22.6818 12.1906 22.9305 12.0072 23.1139C11.8238 23.2973 11.575 23.4003 11.3157 23.4003ZM21.3769 23.4003C20.8384 23.4003 20.3989 22.9609 20.3989 22.4224C20.3989 21.8839 20.8384 21.4444 21.3769 21.4444C21.9154 21.4444 22.3549 21.8839 22.3549 22.4224C22.3549 22.6818 22.2518 22.9305 22.0684 23.1139C21.885 23.2973 21.6363 23.4003 21.3769 23.4003Z" fill="#333333" stroke="white" stroke-width="0.3"/>
<path d="M8.28906 7.61719H26.1332" stroke="#333333" stroke-width="1.5"/>
<path d="M17.2539 3.85938V15.2612" stroke="#333333" stroke-width="1.5"/>
<path d="M22.1269 4.0332L21.2578 15.3486" stroke="#333333" stroke-width="1.5"/>
<path d="M12.4492 3.59766L13.9296 16.0452" stroke="#333333" stroke-width="1.5"/>
<path d="M9.07227 11.2578H25.6089" stroke="#333333" stroke-width="1.5"/>
</svg>
