<svg width="23" height="23" viewBox="0 0 23 23" fill="none" xmlns="http://www.w3.org/2000/svg">
<path fill-rule="evenodd" clip-rule="evenodd" d="M0.716919 0.716919C1.17595 0.257884 1.79854 0 2.44771 0H4.89543C5.5446 0 6.16719 0.257884 6.62622 0.716919C7.08526 1.17595 7.34314 1.79854 7.34314 2.44771V4.89543C7.34314 5.5446 7.08526 6.16719 6.62622 6.62622C6.16719 7.08526 5.5446 7.34314 4.89543 7.34314H2.44771C1.79854 7.34314 1.17595 7.08526 0.716919 6.62622C0.257884 6.16719 0 5.5446 0 4.89543V2.44771C0 1.79854 0.257884 1.17595 0.716919 0.716919ZM4.89543 2.44771L2.44771 2.44771L2.44771 4.89543H4.89543V2.44771ZM11.0147 0C11.6906 0 12.2386 0.547939 12.2386 1.22386V2.44771C12.2386 3.12363 11.6906 3.67157 11.0147 3.67157C10.3388 3.67157 9.79086 3.12363 9.79086 2.44771V1.22386C9.79086 0.547939 10.3388 0 11.0147 0ZM15.4032 0.716919C15.8622 0.257883 16.4848 0 17.134 0H19.5817C20.2309 0 20.8535 0.257883 21.3125 0.716919C21.7715 1.17596 22.0294 1.79854 22.0294 2.44771V4.89543C22.0294 5.5446 21.7715 6.16719 21.3125 6.62622C20.8535 7.08526 20.2309 7.34314 19.5817 7.34314H17.134C16.4848 7.34314 15.8622 7.08526 15.4032 6.62622C14.9442 6.16719 14.6863 5.5446 14.6863 4.89543V2.44771C14.6863 1.79854 14.9442 1.17596 15.4032 0.716919ZM19.5817 2.44771H17.134L17.134 4.89543H19.5817V2.44771ZM11.0147 6.11929C11.6906 6.11929 12.2386 6.66722 12.2386 7.34314V9.79086H15.9224C16.5983 9.79086 17.1462 10.3388 17.1462 11.0147C17.1462 11.6906 16.5983 12.2386 15.9224 12.2386H11.0147C10.3388 12.2386 9.79086 11.6906 9.79086 11.0147V7.34314C9.79086 6.66722 10.3388 6.11929 11.0147 6.11929ZM0 11.0147C0 10.3388 0.547939 9.79086 1.22386 9.79086H6.11929C6.7952 9.79086 7.34314 10.3388 7.34314 11.0147C7.34314 11.6906 6.7952 12.2386 6.11929 12.2386H1.22386C0.547939 12.2386 0 11.6906 0 11.0147ZM19.5817 11.0147C19.5817 10.3388 20.1297 9.79086 20.8056 9.79086H20.8178C21.4937 9.79086 22.0417 10.3388 22.0417 11.0147C22.0417 11.6906 21.4937 12.2386 20.8178 12.2386H20.8056C20.1297 12.2386 19.5817 11.6906 19.5817 11.0147ZM0.716919 15.4032C1.17596 14.9442 1.79854 14.6863 2.44771 14.6863H4.89543C5.5446 14.6863 6.16719 14.9442 6.62622 15.4032C7.08526 15.8622 7.34314 16.4848 7.34314 17.134V19.5817C7.34314 20.2309 7.08526 20.8535 6.62622 21.3125C6.16719 21.7715 5.5446 22.0294 4.89543 22.0294H2.44771C1.79854 22.0294 1.17596 21.7715 0.716919 21.3125C0.257883 20.8535 0 20.2309 0 19.5817V17.134C0 16.4848 0.257883 15.8622 0.716919 15.4032ZM4.89543 17.134L2.44771 17.134L2.44771 19.5817H4.89543V17.134ZM9.79086 15.9101C9.79086 15.2342 10.3388 14.6863 11.0147 14.6863H13.4624C14.1383 14.6863 14.6863 15.2342 14.6863 15.9101C14.6863 16.5861 14.1383 17.134 13.4624 17.134H12.2386V20.8056C12.2386 21.4815 11.6906 22.0294 11.0147 22.0294C10.3388 22.0294 9.79086 21.4815 9.79086 20.8056V15.9101ZM17.134 15.9101C17.134 15.2342 17.6819 14.6863 18.3579 14.6863H20.8056C21.4815 14.6863 22.0294 15.2342 22.0294 15.9101C22.0294 16.5861 21.4815 17.134 20.8056 17.134H18.3579C17.6819 17.134 17.134 16.5861 17.134 15.9101ZM14.6863 20.8056C14.6863 20.1297 15.2342 19.5817 15.9101 19.5817H20.8056C21.4815 19.5817 22.0294 20.1297 22.0294 20.8056C22.0294 21.4815 21.4815 22.0294 20.8056 22.0294H15.9101C15.2342 22.0294 14.6863 21.4815 14.6863 20.8056Z" fill="#EACBD1"/>
</svg>
