<svg width="22" height="20" viewBox="0 0 22 20" fill="none" xmlns="http://www.w3.org/2000/svg">
<path fill-rule="evenodd" clip-rule="evenodd" d="M0.835893 0.292893C1.22642 -0.0976311 1.85958 -0.0976311 2.25011 0.292893L5.2911 3.33389C6.89875 2.45837 8.70444 1.99763 10.5437 2C15.4707 2.0003 19.6379 5.23878 21.04 9.70019C21.1015 9.89575 21.1013 10.1055 21.0396 10.301C20.3891 12.362 19.1504 14.1775 17.4883 15.5311L20.2501 18.2929C20.6406 18.6834 20.6406 19.3166 20.2501 19.7071C19.8596 20.0976 19.2264 20.0976 18.8359 19.7071L15.2487 16.1199C15.2485 16.1197 15.2482 16.1195 15.248 16.1192L11.957 12.8292C11.9481 12.8203 11.9394 12.8113 11.9309 12.8021L7.71398 8.58619C7.70506 8.57728 7.69633 8.56821 7.68779 8.55901L0.835893 1.70711C0.445369 1.31658 0.445369 0.683418 0.835893 0.292893ZM10.0248 8.06839L12.4747 10.5177C12.5195 10.3504 12.5428 10.1767 12.5428 10.0005C12.5428 9.47 12.332 8.96123 11.9569 8.58611C11.5818 8.21099 11.073 8.00025 10.5425 8.00025C10.3662 8.00025 10.1922 8.02353 10.0248 8.06839ZM13.9885 12.0321C14.3483 11.4217 14.5428 10.7211 14.5428 10.0005C14.5428 8.93957 14.1213 7.92209 13.3711 7.17189C12.6209 6.4217 11.6034 6.00025 10.5425 6.00025C9.82208 6.00025 9.12169 6.19458 8.51143 6.55422L6.78012 4.82291C7.95491 4.28113 9.23798 3.99824 10.5416 4L10.543 4C14.4604 4 17.7951 6.50317 19.0317 9.99945C18.4545 11.6272 17.4233 13.0521 16.065 14.108L13.9885 12.0321ZM3.16672 6.1738C3.607 6.50723 3.69362 7.13444 3.3602 7.57472C2.80217 8.31158 2.36178 9.12975 2.05409 10C3.29052 13.4966 6.62543 16 10.543 16C11.1095 16.0004 11.6756 15.9477 12.2322 15.8424C12.7749 15.7398 13.298 16.0965 13.4006 16.6392C13.5032 17.1819 13.1465 17.705 12.6038 17.8076C11.9242 17.9361 11.2339 18.0005 10.5422 18C10.542 18 10.5425 18 10.5422 18C5.61524 17.9997 1.44809 14.7612 0.0460024 10.2998C-0.0153439 10.1046 -0.0153339 9.89529 0.0460311 9.70009C0.42373 8.49868 1.00549 7.37127 1.7658 6.36728C2.09923 5.927 2.72644 5.84038 3.16672 6.1738Z" fill="#CCCCCC"/>
</svg>
