<svg width="29" height="23" viewBox="0 0 29 23" fill="none" xmlns="http://www.w3.org/2000/svg">
<path fill-rule="evenodd" clip-rule="evenodd" d="M1.27409 1.2631C2.08987 0.454351 3.19631 0 4.35 0H24.65C25.8037 0 26.9101 0.454351 27.7259 1.2631C28.5417 2.07185 29 3.16875 29 4.3125V8.625C29 9.00625 28.8472 9.37188 28.5753 9.64147C28.3034 9.91105 27.9346 10.0625 27.55 10.0625C27.1654 10.0625 26.7966 10.2139 26.5247 10.4835C26.2528 10.7531 26.1 11.1188 26.1 11.5C26.1 11.8812 26.2528 12.2469 26.5247 12.5165C26.7966 12.7861 27.1654 12.9375 27.55 12.9375C28.3508 12.9375 29 13.5811 29 14.375V18.6875C29 19.8312 28.5417 20.9281 27.7259 21.7369C26.9101 22.5456 25.8037 23 24.65 23H4.35C3.19631 23 2.08987 22.5456 1.27409 21.7369C0.458302 20.9281 0 19.8312 0 18.6875V14.375C0 13.5811 0.649187 12.9375 1.45 12.9375C1.83456 12.9375 2.20338 12.7861 2.47531 12.5165C2.74723 12.2469 2.9 11.8812 2.9 11.5C2.9 11.1188 2.74723 10.7531 2.47531 10.4835C2.20338 10.2139 1.83456 10.0625 1.45 10.0625C0.649187 10.0625 0 9.41891 0 8.625V4.3125C0 3.16875 0.458302 2.07185 1.27409 1.2631ZM20.3 20.125V18.6875C20.3 17.8936 19.6508 17.25 18.85 17.25C18.0492 17.25 17.4 17.8936 17.4 18.6875V20.125H4.35C3.96544 20.125 3.59662 19.9735 3.3247 19.704C3.05277 19.4344 2.9 19.0687 2.9 18.6875V15.5659C3.50596 15.3535 4.06278 15.0085 4.52591 14.5494C5.3417 13.7406 5.8 12.6437 5.8 11.5C5.8 10.3563 5.3417 9.25935 4.52591 8.4506C4.06278 7.99146 3.50596 7.64654 2.9 7.43413V4.3125C2.9 3.93125 3.05277 3.56562 3.3247 3.29603C3.59662 3.02645 3.96544 2.875 4.35 2.875H17.4V4.3125C17.4 5.10641 18.0492 5.75 18.85 5.75C19.6508 5.75 20.3 5.10641 20.3 4.3125V2.875H24.65C25.0346 2.875 25.4034 3.02645 25.6753 3.29603C25.9472 3.56562 26.1 3.93125 26.1 4.3125V7.43413C25.494 7.64654 24.9372 7.99146 24.4741 8.4506C23.6583 9.25935 23.2 10.3563 23.2 11.5C23.2 12.6437 23.6583 13.7406 24.4741 14.5494C24.9372 15.0085 25.494 15.3535 26.1 15.5659V18.6875C26.1 19.0687 25.9472 19.4344 25.6753 19.704C25.4034 19.9735 25.0346 20.125 24.65 20.125H20.3ZM18.85 8.625C19.6508 8.625 20.3 9.26859 20.3 10.0625V12.9375C20.3 13.7314 19.6508 14.375 18.85 14.375C18.0492 14.375 17.4 13.7314 17.4 12.9375V10.0625C17.4 9.26859 18.0492 8.625 18.85 8.625Z" fill="#CCCCCC"/>
</svg>
