<svg width="33" height="32" viewBox="0 0 33 32" fill="none" xmlns="http://www.w3.org/2000/svg">
<path d="M8.97168 29V20.25L9.17188 20.0997C9.38956 19.9362 9.84673 19.3709 10.249 18.2002C10.6447 17.0488 10.9717 15.3549 10.9717 13.0001C10.9717 10.0803 10.1227 8.93186 9.35156 8.4981C8.54168 8.0426 7.60049 8.24473 7.19531 8.44732C7.19156 8.45 7.14561 8.48144 7.07715 8.60454C7.00626 8.73207 6.93508 8.91511 6.86621 9.15435C6.72853 9.63271 6.62261 10.2581 6.5293 10.9424C6.48298 11.2821 6.44046 11.6306 6.39844 11.9766C6.35659 12.3212 6.31495 12.6643 6.27148 12.9883C6.19679 13.5451 6.11227 14.0799 5.99707 14.4903L5.94629 14.6583C5.54475 15.8629 3.109 22.8347 1.94336 26.1651L1 25.835C2.1677 22.4987 4.59861 15.5372 4.99707 14.3418L5.0752 14.0635C5.1498 13.7511 5.21637 13.3392 5.28125 12.8555C5.32371 12.539 5.36413 12.2023 5.40625 11.8555C5.44819 11.5102 5.49165 11.1554 5.53906 10.8077C5.63322 10.1172 5.74613 9.42981 5.90527 8.877C5.98477 8.60091 6.08173 8.33824 6.2041 8.11821C6.3227 7.90505 6.49371 7.67995 6.74805 7.55278C7.34286 7.25538 8.6517 6.95758 9.8418 7.627C11.0706 8.31827 11.9717 9.91992 11.9717 13.0001C11.9717 15.4452 11.632 17.2519 11.1943 18.5254C10.8261 19.5968 10.3751 20.3243 9.97168 20.7237V29C9.97168 29.2534 10.0517 29.6446 10.2773 29.9581C10.4847 30.246 10.8347 30.5 11.4717 30.5H24.3984C24.6781 30.423 25.082 30.256 25.4121 29.9952C25.7586 29.7213 25.9717 29.3929 25.9717 29V27.9151H26.9717V29C26.9717 29.8071 26.5179 30.3959 26.0312 30.7803C25.5478 31.1621 24.9794 31.3888 24.5928 31.4854L24.5332 31.5H11.4717C10.5087 31.5 9.85852 31.0875 9.46582 30.542C9.09156 30.0222 8.97168 29.4134 8.97168 29Z" fill="#333333" stroke="#333333"/>
<path d="M25.4727 3C25.4727 2.56315 25.3018 2.33838 25.1182 2.20605C24.9089 2.0554 24.6426 2 24.4727 2H10.9727C10.5358 2 10.311 2.17083 10.1787 2.35449C10.0281 2.56374 9.97266 2.83001 9.97266 3V8H8.97266V3C8.97266 2.66999 9.06785 2.18626 9.36719 1.77051C9.68489 1.32928 10.2097 1 10.9727 1H24.4727C24.8027 1 25.2864 1.09519 25.7021 1.39453C26.1434 1.71223 26.4727 2.23706 26.4727 3V15.5H25.4727V3Z" fill="#333333" stroke="#333333"/>
<path d="M28.4737 26.0003C28.4737 25.6713 28.3115 25.332 27.9591 25.1116C27.6076 24.892 27.0128 24.7615 26.1173 24.9808C25.9355 25.0444 25.6422 25.2007 25.3985 25.4573C25.1563 25.7125 24.9738 26.0526 24.9737 26.5003C24.9737 26.7883 25.0439 26.9599 25.1251 27.0696C25.2089 27.1828 25.3377 27.275 25.5245 27.345C25.9236 27.4946 26.4515 27.5003 26.9737 27.5003C27.3111 27.5003 27.6904 27.3266 27.9952 27.0218C28.3 26.717 28.4737 26.3376 28.4737 26.0003ZM28.2794 15.5716C28.012 15.4486 27.6406 15.3874 27.13 15.4798L24.3243 16.8831C24.1903 17.105 24.0284 17.4311 23.9288 17.7767C23.8079 18.1962 23.8051 18.5449 23.921 18.7767C23.9493 18.8332 24.0183 18.9084 24.1857 18.9778C24.3536 19.0474 24.5802 19.0939 24.8487 19.1146C25.386 19.1559 25.9889 19.0873 26.3751 19.0101L26.7052 18.9349C27.0695 18.844 27.5212 18.7061 27.9396 18.5277C28.218 18.4089 28.4685 18.2782 28.6651 18.14C28.8675 17.9977 28.9779 17.8718 29.0255 17.7767C29.1031 17.6215 29.1577 17.3672 29.1446 17.0609C29.1318 16.7596 29.0545 16.445 28.9083 16.1771C28.7641 15.9128 28.5574 15.6996 28.2794 15.5716ZM29.4728 21.0003C29.4728 20.692 29.2776 20.4495 28.837 20.2591C28.4341 20.085 27.9354 20.0148 27.5675 20.0042L24.3136 21.3987C24.1761 21.6219 24.0175 21.9202 23.921 22.2005C23.863 22.369 23.8372 22.5035 23.836 22.596C23.8356 22.6326 23.8396 22.6529 23.8419 22.6624C23.938 22.762 24.012 22.8722 24.0694 22.9652C24.119 23.0453 24.1988 23.1844 24.2384 23.2503C24.3453 23.4284 24.4435 23.56 24.5773 23.6556C24.8154 23.8256 25.3632 24.01 26.8155 23.5257C27.557 23.2785 28.0932 23.0686 28.4835 22.8734C28.8746 22.6778 29.0909 22.5107 29.2179 22.3626C29.4515 22.09 29.4728 21.794 29.4728 21.0003ZM30.4728 21.0003C30.4728 21.7066 30.4937 22.4107 29.9776 23.013C29.7297 23.3023 29.383 23.5417 28.9308 23.7679C28.7113 23.8776 28.4598 23.987 28.173 24.0999C28.2838 24.148 28.3893 24.2021 28.4884 24.264C29.1358 24.6686 29.4737 25.3294 29.4737 26.0003C29.4737 26.6629 29.1474 27.2837 28.7023 27.7288C28.2571 28.174 27.6363 28.5003 26.9737 28.5003C26.4962 28.5003 25.7739 28.5069 25.173 28.2816C24.8598 28.1641 24.5501 27.9741 24.3214 27.6653C24.0902 27.3532 23.9737 26.962 23.9737 26.5003C23.9738 25.7494 24.2901 25.1738 24.672 24.7708C24.4125 24.7099 24.1897 24.6082 23.9962 24.47C23.6924 24.2531 23.5086 23.9775 23.381 23.765C23.3034 23.6357 23.2767 23.584 23.2189 23.4905C23.172 23.4148 23.1417 23.3753 23.1202 23.3538C22.8891 23.1227 22.8331 22.8241 22.836 22.5833C22.8391 22.3416 22.9004 22.0941 22.9757 21.8753C23.1272 21.435 23.3759 20.9958 23.5577 20.723L23.6398 20.5989L24.7755 20.1116H24.7726C24.4458 20.0865 24.1035 20.0258 23.8019 19.9007C23.4999 19.7754 23.1981 19.5672 23.0265 19.2239C22.7424 18.6558 22.8222 18.0046 22.9679 17.4993C23.1178 16.9793 23.3677 16.508 23.5577 16.223L23.631 16.1126L25.962 14.9456L25.8751 14.5101C29.5812 13.7689 30.5355 12.4647 30.6681 11.6683C30.7372 11.253 30.6083 10.8929 30.4318 10.6683C30.3425 10.5548 30.2545 10.4937 30.1974 10.4691C30.1832 10.463 30.1732 10.4607 30.1671 10.4593C29.9098 10.5826 29.582 10.6719 29.2472 10.7376C28.8915 10.8074 28.4927 10.8594 28.0958 10.8978C27.3022 10.9746 26.4862 11.0003 25.9737 11.0003V10.0003C26.4609 10.0003 27.2444 9.9758 28.0001 9.90265C28.3779 9.86608 28.7419 9.81759 29.0548 9.75617C29.3761 9.69309 29.6104 9.62239 29.7491 9.55304L29.8595 9.50617C30.1184 9.41699 30.3816 9.45957 30.5939 9.55109C30.8356 9.65538 31.0493 9.83663 31.2179 10.0511C31.557 10.4827 31.7724 11.1229 31.6544 11.8323C31.4807 12.8764 30.6322 13.9122 28.7628 14.6966C29.2307 14.9302 29.5657 15.2944 29.7862 15.6986C30.0151 16.118 30.1251 16.5849 30.1437 17.0179C30.162 17.4458 30.0924 17.8791 29.92 18.2239C29.7677 18.5286 29.5076 18.7694 29.2403 18.9573C29.1159 19.0448 28.9808 19.125 28.8419 19.2005C28.9745 19.2404 29.1063 19.2862 29.2335 19.3411C29.8342 19.6007 30.4728 20.1086 30.4728 21.0003Z" fill="#333333" stroke="#333333"/>
<path d="M23.3638 12.6961C23.3292 12.3037 23.0637 12.044 22.6193 12.044C22.0422 12.044 21.7132 12.4884 21.7132 13.2329C21.7132 14.0178 22.0479 14.4218 22.6135 14.4218C23.0348 14.4218 23.3061 14.1909 23.3638 13.8215L24.4777 13.8331C24.42 14.5487 23.7909 15.3798 22.5904 15.3798C21.442 15.3798 20.582 14.618 20.582 13.2329C20.582 11.842 21.465 11.0859 22.5904 11.0859C23.6293 11.0859 24.3853 11.6688 24.4777 12.6961H23.3638Z" fill="#333333"/>
<path d="M17.2578 15.322V11.1436H20.1723V12.0323H18.3544V12.7884H19.9876V13.6772H18.3544V15.322H17.2578Z" fill="#333333"/>
<path d="M16.6932 11.1436V15.322H15.7755L14.2231 13.0654H14.1942V15.322H13.0977V11.1436H14.0326L15.562 13.3886H15.5966V11.1436H16.6932Z" fill="#333333"/>
</svg>
