<svg width="22" height="26" viewBox="0 0 22 26" fill="none" xmlns="http://www.w3.org/2000/svg">
<path fill-rule="evenodd" clip-rule="evenodd" d="M8.55556 3.22179C8.2314 3.22179 7.92053 3.35056 7.69131 3.57977C7.4621 3.80898 7.33333 4.11986 7.33333 4.44401V16.6662C7.33333 16.9904 7.4621 17.3013 7.69131 17.5305C7.92053 17.7597 8.2314 17.8885 8.55556 17.8885H18.3333C18.6575 17.8885 18.9684 17.7597 19.1976 17.5305C19.4268 17.3013 19.5556 16.9904 19.5556 16.6662V8.61694L14.1605 3.22192L8.55556 3.22179ZM5.96283 1.85129C6.65046 1.16365 7.58309 0.777344 8.55556 0.777344H14.1607C14.8089 0.777482 15.4307 1.03506 15.889 1.49344M15.889 1.49344L21.2838 6.88819C21.2838 6.88824 21.2837 6.88815 21.2838 6.88819C21.7422 7.3465 21.9999 7.96823 22 8.61642V16.6662C22 17.6387 21.6137 18.5713 20.9261 19.259C20.2384 19.9466 19.3058 20.3329 18.3333 20.3329H17.1111V21.5551C17.1111 22.5276 16.7248 23.4602 16.0372 24.1478C15.3495 24.8355 14.4169 25.2218 13.4444 25.2218H3.66667C2.69421 25.2218 1.76157 24.8355 1.07394 24.1478C0.386308 23.4602 0 22.5276 0 21.5551V9.3329C0 8.36044 0.386308 7.42781 1.07394 6.74017C1.76158 6.05254 2.69421 5.66623 3.66667 5.66623H4.88889V4.44401C4.88889 3.47155 5.2752 2.53892 5.96283 1.85129M4.88889 8.11068H3.66667C3.34251 8.11068 3.03164 8.23945 2.80242 8.46866C2.57321 8.69787 2.44444 9.00875 2.44444 9.3329V21.5551C2.44444 21.8793 2.57321 22.1902 2.80242 22.4194C3.03164 22.6486 3.34251 22.7773 3.66667 22.7773H13.4444C13.7686 22.7773 14.0795 22.6486 14.3087 22.4194C14.5379 22.1902 14.6667 21.8793 14.6667 21.5551V20.3329H8.55556C7.58309 20.3329 6.65046 19.9466 5.96283 19.259C5.2752 18.5713 4.88889 17.6387 4.88889 16.6662V8.11068Z" fill="#333333"/>
</svg>
