<svg width="20" height="20" viewBox="0 0 20 20" fill="none" xmlns="http://www.w3.org/2000/svg">
<path fill-rule="evenodd" clip-rule="evenodd" d="M9.29289 0.292893C9.68342 -0.0976311 10.3166 -0.0976311 10.7071 0.292893L19.7071 9.29289C20.0976 9.68342 20.0976 10.3166 19.7071 10.7071C19.3166 11.0976 18.6834 11.0976 18.2929 10.7071L18 10.4142V18C18 18.5304 17.7893 19.0391 17.4142 19.4142C17.0391 19.7893 16.5304 20 16 20H4C3.46957 20 2.96086 19.7893 2.58579 19.4142C2.21071 19.0391 2 18.5304 2 18V10.4142L1.70711 10.7071C1.31658 11.0976 0.683417 11.0976 0.292893 10.7071C-0.0976311 10.3166 -0.0976311 9.68342 0.292893 9.29289L9.29289 0.292893ZM4 8.41421V18H7V14C7 13.4696 7.21071 12.9609 7.58579 12.5858C7.96086 12.2107 8.46957 12 9 12H11C11.5304 12 12.0391 12.2107 12.4142 12.5858C12.7893 12.9609 13 13.4696 13 14V18H16V8.41421L10 2.41421L4 8.41421ZM11 18V14H9V18H11Z" fill="white"/>
</svg>
