<svg width="18" height="23" viewBox="0 0 18 23" fill="none" xmlns="http://www.w3.org/2000/svg">
<path fill-rule="evenodd" clip-rule="evenodd" d="M7.875 2.5C7.57663 2.5 7.29048 2.61853 7.0795 2.8295C6.86853 3.04048 6.75 3.32663 6.75 3.625C6.75 3.92337 6.86853 4.20952 7.0795 4.4205C7.29048 4.63147 7.57663 4.75 7.875 4.75H10.125C10.4234 4.75 10.7095 4.63147 10.9205 4.4205C11.1315 4.20952 11.25 3.92337 11.25 3.625C11.25 3.32663 11.1315 3.04048 10.9205 2.8295C10.7095 2.61853 10.4234 2.5 10.125 2.5H7.875ZM5.48852 1.23851C6.12145 0.605579 6.97989 0.25 7.875 0.25H10.125C11.0201 0.25 11.8785 0.605579 12.5115 1.23851C12.8708 1.59784 13.1408 2.02986 13.307 2.5H14.625C15.5201 2.5 16.3785 2.85558 17.0115 3.48851C17.6444 4.12145 18 4.97989 18 5.875V19.375C18 20.2701 17.6444 21.1286 17.0115 21.7615C16.3785 22.3944 15.5201 22.75 14.625 22.75H3.375C2.47989 22.75 1.62145 22.3944 0.988515 21.7615C0.355579 21.1285 0 20.2701 0 19.375V5.875C0 4.97989 0.355579 4.12145 0.988515 3.48851C1.62145 2.85558 2.47989 2.5 3.375 2.5H4.69302C4.85925 2.02986 5.12919 1.59784 5.48852 1.23851ZM4.69302 4.75H3.375C3.07663 4.75 2.79048 4.86853 2.5795 5.0795C2.36853 5.29048 2.25 5.57663 2.25 5.875V19.375C2.25 19.6734 2.36853 19.9595 2.5795 20.1705C2.79048 20.3815 3.07663 20.5 3.375 20.5H14.625C14.9234 20.5 15.2095 20.3815 15.4205 20.1705C15.6315 19.9595 15.75 19.6734 15.75 19.375V5.875C15.75 5.57663 15.6315 5.29048 15.4205 5.0795C15.2095 4.86853 14.9234 4.75 14.625 4.75H13.307C13.1408 5.22014 12.8708 5.65215 12.5115 6.01149C11.8785 6.64442 11.0201 7 10.125 7H7.875C6.97989 7 6.12145 6.64442 5.48852 6.01149C5.12919 5.65215 4.85925 5.22014 4.69302 4.75ZM4.5 11.5C4.5 10.8787 5.00368 10.375 5.625 10.375H5.63625C6.25757 10.375 6.76125 10.8787 6.76125 11.5C6.76125 12.1213 6.25757 12.625 5.63625 12.625H5.625C5.00368 12.625 4.5 12.1213 4.5 11.5ZM7.875 11.5C7.875 10.8787 8.37868 10.375 9 10.375H12.375C12.9963 10.375 13.5 10.8787 13.5 11.5C13.5 12.1213 12.9963 12.625 12.375 12.625H9C8.37868 12.625 7.875 12.1213 7.875 11.5ZM4.5 16C4.5 15.3787 5.00368 14.875 5.625 14.875H5.63625C6.25757 14.875 6.76125 15.3787 6.76125 16C6.76125 16.6213 6.25757 17.125 5.63625 17.125H5.625C5.00368 17.125 4.5 16.6213 4.5 16ZM7.875 16C7.875 15.3787 8.37868 14.875 9 14.875H12.375C12.9963 14.875 13.5 15.3787 13.5 16C13.5 16.6213 12.9963 17.125 12.375 17.125H9C8.37868 17.125 7.875 16.6213 7.875 16Z" fill="#EACBD1"/>
</svg>
