<svg width="20" height="20" viewBox="0 0 20 20" fill="none" xmlns="http://www.w3.org/2000/svg">
<path fill-rule="evenodd" clip-rule="evenodd" d="M0.201842 16.6909C1.28154 14.1975 3.93894 10.2441 9.7553 10.2441C15.5842 10.2441 18.207 14.215 19.2605 16.7141L19.2606 16.7144C19.9189 18.2777 18.7663 19.9997 17.076 19.9997H2.37242C0.677505 19.9997 -0.487924 18.2616 0.201842 16.6909ZM9.7553 12.11C5.01251 12.11 2.85563 15.2568 1.91317 17.4346L1.91192 17.4375L1.91065 17.4403C1.76991 17.7596 2.0035 18.1338 2.37242 18.1338H17.076C17.438 18.1338 17.6787 17.7663 17.5411 17.4389C16.6229 15.2607 14.5001 12.11 9.7553 12.11Z" fill="white"/>
<path fill-rule="evenodd" clip-rule="evenodd" d="M9.71492 1.86591C8.08497 1.86591 6.76364 3.18723 6.76364 4.81717C6.76364 6.4471 8.08497 7.76842 9.71492 7.76842C11.3449 7.76842 12.6662 6.4471 12.6662 4.81717C12.6662 3.18723 11.3449 1.86591 9.71492 1.86591ZM4.89771 4.81717C4.89771 2.15672 7.05445 0 9.71492 0C12.3754 0 14.5321 2.15672 14.5321 4.81717C14.5321 7.47761 12.3754 9.63433 9.71492 9.63433C7.05445 9.63433 4.89771 7.47761 4.89771 4.81717Z" fill="white"/>
</svg>
