<svg width="26" height="23" viewBox="0 0 26 23" fill="none" xmlns="http://www.w3.org/2000/svg">
<path fill-rule="evenodd" clip-rule="evenodd" d="M23 0H2.55556C1.15 0 0 1.15 0 2.55556V20.4444C0 21.85 1.15 23 2.55556 23H23C24.4056 23 25.5556 21.85 25.5556 20.4444V2.55556C25.5556 1.15 24.4056 0 23 0ZM23 20.4444H2.55556V2.55556H23V20.4444Z" fill="#CCCCCC"/>
<path fill-rule="evenodd" clip-rule="evenodd" d="M22.246 9.48133L20.4316 7.66688L16.381 11.7174L14.5794 9.90299L12.7777 11.7047L16.381 15.3336L22.246 9.48133ZM3.83325 5.11133H10.2221V7.66688H3.83325V5.11133ZM3.83325 10.2224H10.2221V12.778H3.83325V10.2224ZM3.83325 15.3336H10.2221V17.8891H3.83325V15.3336Z" fill="#CCCCCC"/>
</svg>
