<svg width="30" height="27" viewBox="0 0 30 27" fill="none" xmlns="http://www.w3.org/2000/svg">
<path d="M12.1602 26C12.1602 26.55 12.6102 27 13.1602 27H17.1602C17.7102 27 18.1602 26.55 18.1602 26V25H12.1602V26ZM15.1602 7C11.3002 7 8.16016 10.14 8.16016 14C8.16016 16.38 9.35016 18.47 11.1602 19.74V22C11.1602 22.55 11.6102 23 12.1602 23H18.1602C18.7102 23 19.1602 22.55 19.1602 22V19.74C20.9702 18.47 22.1602 16.38 22.1602 14C22.1602 10.14 19.0202 7 15.1602 7ZM17.1602 18.7V21H13.1602V18.7C11.6402 17.63 10.1602 16.53 10.1602 14C10.1602 11.24 12.4002 9 15.1602 9C17.9202 9 20.1602 11.24 20.1602 14C20.1602 16.49 18.6502 17.65 17.1602 18.7Z" fill="#333333"/>
<path d="M1.16016 14.5H4.16016" stroke="#333333" stroke-width="2" stroke-linecap="round"/>
<path d="M25.1602 14.5H28.1602" stroke="#333333" stroke-width="2" stroke-linecap="round"/>
<path d="M15.1602 4.5L15.1602 1.5" stroke="#333333" stroke-width="2" stroke-linecap="round"/>
<path d="M22.1602 7.18164L24.2815 5.06032" stroke="#333333" stroke-width="2" stroke-linecap="round"/>
<path d="M5.16016 23.1816L7.28148 21.0603" stroke="#333333" stroke-width="2" stroke-linecap="round"/>
<path d="M7.3418 7.18164L5.22048 5.06032" stroke="#333333" stroke-width="2" stroke-linecap="round"/>
<path d="M25.3418 23.1816L23.2205 21.0603" stroke="#333333" stroke-width="2" stroke-linecap="round"/>
<path fill-rule="evenodd" clip-rule="evenodd" d="M15.1602 13.5C14.884 13.5 14.6602 13.7239 14.6602 14C14.6602 14.2761 14.884 14.5 15.1602 14.5C15.4363 14.5 15.6602 14.2761 15.6602 14C15.6602 13.7239 15.4363 13.5 15.1602 13.5ZM14.1602 14C14.1602 13.4477 14.6079 13 15.1602 13C15.7124 13 16.1602 13.4477 16.1602 14C16.1602 14.5523 15.7124 15 15.1602 15C14.6079 15 14.1602 14.5523 14.1602 14Z" fill="#333333"/>
<path fill-rule="evenodd" clip-rule="evenodd" d="M15.1592 13.3833C14.8186 13.3833 14.5425 13.6594 14.5425 14C14.5425 14.3406 14.8186 14.6167 15.1592 14.6167C15.4998 14.6167 15.7759 14.3406 15.7759 14C15.7759 13.6594 15.4998 13.3833 15.1592 13.3833ZM13.9258 14C13.9258 13.3188 14.478 12.7666 15.1592 12.7666C15.8404 12.7666 16.3926 13.3188 16.3926 14C16.3926 14.6812 15.8404 15.2334 15.1592 15.2334C14.478 15.2334 13.9258 14.6812 13.9258 14Z" fill="#333333"/>
<path fill-rule="evenodd" clip-rule="evenodd" d="M15.1602 11.5C15.0939 11.5 15.0303 11.5263 14.9834 11.5732C14.9365 11.6201 14.9102 11.6837 14.9102 11.75V11.7935C14.9096 11.9227 14.8714 12.0489 14.8 12.1567C14.7287 12.2644 14.6274 12.3489 14.5086 12.3998C14.4875 12.4088 14.4653 12.4149 14.4426 12.4179C14.3347 12.4557 14.2185 12.465 14.1054 12.4445C13.9752 12.4209 13.855 12.3588 13.7603 12.2662L13.7584 12.2643L13.7434 12.2493C13.7202 12.226 13.6925 12.2075 13.6621 12.1949C13.6318 12.1823 13.5993 12.1759 13.5664 12.1759C13.5336 12.1759 13.501 12.1823 13.4707 12.1949C13.4403 12.2075 13.4127 12.2259 13.3895 12.2492L13.3893 12.2494C13.3661 12.2726 13.3477 12.3002 13.3351 12.3305C13.3225 12.3609 13.316 12.3934 13.316 12.4262C13.316 12.4591 13.3225 12.4916 13.3351 12.522C13.3477 12.5523 13.3661 12.5799 13.3893 12.6031L13.4064 12.6202C13.4989 12.7148 13.561 12.835 13.5846 12.9653C13.6078 13.0929 13.5929 13.2245 13.542 13.3437C13.4956 13.4653 13.4144 13.5707 13.3084 13.6465C13.2003 13.7238 13.0714 13.7668 12.9385 13.7699L12.9327 13.77H12.9102C12.8439 13.77 12.7803 13.7963 12.7334 13.8432C12.6865 13.8901 12.6602 13.9537 12.6602 14.02C12.6602 14.0863 12.6865 14.1499 12.7334 14.1968C12.7803 14.2437 12.8439 14.27 12.9102 14.27H12.9537C13.0829 14.2705 13.2091 14.3088 13.3168 14.3801C13.4242 14.4512 13.5085 14.5521 13.5594 14.6703C13.6124 14.7911 13.6282 14.9249 13.6046 15.0547C13.581 15.185 13.5189 15.3052 13.4264 15.3998L13.4244 15.4018L13.4094 15.4168C13.3862 15.44 13.3677 15.4677 13.3551 15.498C13.3425 15.5284 13.336 15.5609 13.336 15.5938C13.336 15.6266 13.3425 15.6591 13.3551 15.6895C13.3677 15.7198 13.3861 15.7474 13.4093 15.7706L13.4095 15.7708C13.4327 15.7941 13.4603 15.8125 13.4907 15.8251C13.521 15.8377 13.5536 15.8441 13.5864 15.8441C13.6193 15.8441 13.6518 15.8377 13.6821 15.8251C13.7125 15.8125 13.7401 15.7941 13.7633 15.7708L13.7803 15.7538C13.875 15.6612 13.9952 15.5991 14.1254 15.5755C14.2531 15.5524 14.3846 15.5672 14.5038 15.6181C14.6255 15.6645 14.7308 15.7458 14.8066 15.8517C14.884 15.9599 14.927 16.0888 14.9301 16.2217L14.9302 16.2275V16.25C14.9302 16.3163 14.9565 16.3799 15.0034 16.4268C15.0503 16.4737 15.1139 16.5 15.1802 16.5C15.2465 16.5 15.31 16.4737 15.3569 16.4268C15.4038 16.3799 15.4302 16.3163 15.4302 16.25V16.2075L15.4302 16.2065C15.4307 16.0773 15.469 15.9511 15.5403 15.8433C15.6114 15.736 15.7122 15.6517 15.8305 15.6007C15.9512 15.5477 16.0851 15.532 16.2149 15.5555C16.3452 15.5791 16.4653 15.6412 16.56 15.7338L16.5619 15.7357L16.5769 15.7507C16.6002 15.774 16.6278 15.7925 16.6582 15.8051C16.6885 15.8177 16.7211 15.8241 16.7539 15.8241C16.7868 15.8241 16.8193 15.8177 16.8496 15.8051C16.88 15.7925 16.9076 15.7741 16.9308 15.7508L16.931 15.7506C16.9542 15.7274 16.9727 15.6998 16.9852 15.6695C16.9978 15.6391 17.0043 15.6066 17.0043 15.5738C17.0043 15.5409 16.9978 15.5084 16.9852 15.478C16.9727 15.4477 16.9542 15.4201 16.931 15.3969L16.9139 15.3798C16.8214 15.2852 16.7593 15.165 16.7357 15.0347C16.7121 14.9049 16.7279 14.7711 16.7809 14.6503C16.8318 14.5321 16.9161 14.4312 17.0235 14.3601C17.1312 14.2888 17.2575 14.2505 17.3867 14.25L17.3877 14.25L17.4102 14.25C17.4765 14.25 17.54 14.2237 17.5869 14.1768C17.6338 14.1299 17.6602 14.0663 17.6602 14C17.6602 13.9337 17.6338 13.8701 17.5869 13.8232C17.54 13.7763 17.4765 13.75 17.4102 13.75H17.3677L17.3667 13.75C17.2375 13.7495 17.1112 13.7112 17.0035 13.6399C16.8958 13.5685 16.8113 13.4672 16.7604 13.3485C16.7513 13.3273 16.7452 13.3051 16.7423 13.2824C16.7045 13.1745 16.6952 13.0583 16.7157 12.9453C16.7393 12.815 16.8014 12.6948 16.8939 12.6002L16.8959 12.5982L16.9109 12.5832C16.9341 12.56 16.9527 12.5323 16.9652 12.502C16.9778 12.4716 16.9843 12.4391 16.9843 12.4062C16.9843 12.3734 16.9778 12.3409 16.9652 12.3105C16.9527 12.2802 16.9342 12.2526 16.911 12.2294L16.9108 12.2292C16.8876 12.2059 16.86 12.1875 16.8296 12.1749C16.7993 12.1623 16.7668 12.1559 16.7339 12.1559C16.7011 12.1559 16.6685 12.1623 16.6382 12.1749C16.6078 12.1875 16.5802 12.2059 16.557 12.2292L16.54 12.2462C16.4454 12.3388 16.3252 12.4009 16.1949 12.4245C16.0651 12.448 15.9312 12.4323 15.8104 12.3793C15.6922 12.3283 15.5914 12.244 15.5203 12.1367C15.449 12.0289 15.4107 11.9027 15.4102 11.7735L15.4102 11.7725V11.75C15.4102 11.6837 15.3838 11.6201 15.3369 11.5732C15.29 11.5263 15.2265 11.5 15.1602 11.5ZM14.6298 11.2197C14.7705 11.079 14.9612 11 15.1602 11C15.3591 11 15.5498 11.079 15.6905 11.2197C15.8311 11.3603 15.9102 11.5511 15.9102 11.75V11.7719C15.9104 11.8034 15.9197 11.8343 15.9372 11.8606C15.9547 11.887 15.9795 11.9077 16.0086 11.9202L16.0111 11.9213C16.0408 11.9344 16.0738 11.9383 16.1057 11.9325C16.1373 11.9268 16.1665 11.9118 16.1896 11.8895L16.2033 11.8758C16.2729 11.8061 16.3557 11.7508 16.4467 11.713C16.5377 11.6753 16.6353 11.6559 16.7339 11.6559C16.8325 11.6559 16.9301 11.6753 17.0211 11.713C17.1122 11.7508 17.1949 11.8061 17.2645 11.8758C17.3342 11.9454 17.3894 12.0281 17.4271 12.119C17.4649 12.2101 17.4843 12.3077 17.4843 12.4062C17.4843 12.5048 17.4649 12.6024 17.4271 12.6935C17.3894 12.7845 17.3341 12.8671 17.2644 12.9368C17.2644 12.9368 17.2645 12.9367 17.2644 12.9368L17.2506 12.9506C17.2283 12.9737 17.2134 13.0029 17.2076 13.0345C17.2019 13.0664 17.2058 13.0994 17.2189 13.1291C17.2259 13.1451 17.2313 13.1617 17.2349 13.1788C17.2467 13.1962 17.2618 13.2112 17.2796 13.223C17.3059 13.2404 17.3367 13.2498 17.3683 13.25H17.4102C17.6091 13.25 17.7998 13.329 17.9405 13.4697C18.0811 13.6103 18.1602 13.8011 18.1602 14C18.1602 14.1989 18.0811 14.3897 17.9405 14.5303C17.7998 14.671 17.6091 14.75 17.4102 14.75H17.3883C17.3567 14.7502 17.3259 14.7596 17.2996 14.777C17.2732 14.7945 17.2524 14.8194 17.2399 14.8485L17.2389 14.8509C17.2258 14.8807 17.2219 14.9136 17.2276 14.9455C17.2334 14.9771 17.2483 15.0063 17.2706 15.0294L17.2843 15.0431C17.2844 15.0432 17.2843 15.0431 17.2843 15.0431C17.354 15.1128 17.4094 15.1955 17.4471 15.2865C17.4849 15.3776 17.5043 15.4752 17.5043 15.5738C17.5043 15.6723 17.4849 15.7699 17.4471 15.861C17.4094 15.952 17.3541 16.0347 17.2843 16.1044L17.1077 15.9275L17.2845 16.1042C17.2149 16.1739 17.1322 16.2292 17.0411 16.267C16.9501 16.3047 16.8525 16.3241 16.7539 16.3241C16.6553 16.3241 16.5577 16.3047 16.4667 16.267C16.3757 16.2292 16.293 16.174 16.2234 16.1043C16.2233 16.1042 16.2234 16.1043 16.2234 16.1043L16.2096 16.0905C16.1865 16.0682 16.1573 16.0532 16.1257 16.0475C16.0938 16.0417 16.0608 16.0456 16.0311 16.0587L16.0286 16.0598C15.9995 16.0723 15.9747 16.093 15.9572 16.1194C15.9397 16.1457 15.9304 16.1766 15.9302 16.2081V16.25C15.9302 16.4489 15.8511 16.6397 15.7105 16.7803C15.5698 16.921 15.3791 17 15.1802 17C14.9812 17 14.7905 16.921 14.6498 16.7803C14.5092 16.6397 14.4302 16.4489 14.4302 16.25V16.2311C14.429 16.1993 14.4185 16.1685 14.3999 16.1426C14.381 16.1161 14.3545 16.0959 14.3239 16.0846C14.3189 16.0828 14.314 16.0808 14.3092 16.0787C14.2795 16.0656 14.2466 16.0617 14.2146 16.0675C14.183 16.0732 14.1538 16.0882 14.1307 16.1105L14.117 16.1242C14.117 16.1242 14.1171 16.1241 14.117 16.1242C14.0474 16.1939 13.9646 16.2492 13.8736 16.287C13.7826 16.3247 13.685 16.3441 13.5864 16.3441C13.4878 16.3441 13.3902 16.3247 13.2992 16.287C13.2082 16.2493 13.1256 16.194 13.056 16.1244C12.9862 16.0547 12.9309 15.972 12.8932 15.881C12.8554 15.7899 12.836 15.6923 12.836 15.5938C12.836 15.4952 12.8554 15.3976 12.8932 15.3065C12.9309 15.2155 12.9862 15.1328 13.056 15.0631L13.0697 15.0494C13.092 15.0263 13.1069 14.9971 13.1127 14.9655C13.1185 14.9336 13.1146 14.9006 13.1014 14.8709L13.1004 14.8685C13.0879 14.8394 13.0672 14.8145 13.0407 14.797C13.0144 14.7796 12.9836 14.7702 12.952 14.77H12.9102C12.7112 14.77 12.5205 14.691 12.3798 14.5503C12.2392 14.4097 12.1602 14.2189 12.1602 14.02C12.1602 13.8211 12.2392 13.6303 12.3798 13.4897C12.5205 13.349 12.7112 13.27 12.9102 13.27H12.9291C12.9609 13.2688 12.9916 13.2583 13.0175 13.2398C13.0441 13.2208 13.0643 13.1943 13.0755 13.1637C13.0773 13.1588 13.0793 13.1539 13.0814 13.1491C13.0946 13.1194 13.0985 13.0864 13.0927 13.0545C13.0869 13.0229 13.072 12.9937 13.0497 12.9706L13.036 12.9569C12.9662 12.8872 12.9109 12.8045 12.8732 12.7135C12.8354 12.6224 12.816 12.5248 12.816 12.4262C12.816 12.3277 12.8354 12.2301 12.8732 12.139C12.9109 12.048 12.9662 11.9654 13.0359 11.8957C13.1055 11.826 13.1882 11.7708 13.2792 11.733C13.3702 11.6953 13.4678 11.6759 13.5664 11.6759C13.665 11.6759 13.7626 11.6953 13.8536 11.733C13.9447 11.7708 14.0274 11.8261 14.097 11.8958L14.1107 11.9095C14.1338 11.9318 14.163 11.9468 14.1946 11.9525C14.2266 11.9583 14.2595 11.9544 14.2892 11.9413C14.3052 11.9342 14.3219 11.9289 14.3389 11.9253C14.3564 11.9135 14.3714 11.8983 14.3831 11.8806C14.4006 11.8543 14.41 11.8234 14.4102 11.7919V11.75C14.4102 11.5511 14.4892 11.3603 14.6298 11.2197Z" fill="#333333"/>
<path fill-rule="evenodd" clip-rule="evenodd" d="M15.1602 11.028C15.0813 11.028 15.0057 11.0593 14.95 11.115C14.8943 11.1708 14.863 11.2464 14.863 11.3252V11.3769C14.8623 11.5305 14.8168 11.6806 14.732 11.8086C14.6472 11.9367 14.5268 12.0372 14.3856 12.0977C14.3605 12.1084 14.3341 12.1157 14.3071 12.1192C14.1788 12.1641 14.0407 12.1752 13.9063 12.1508C13.7514 12.1227 13.6085 12.0489 13.4961 11.9389L13.4937 11.9366L13.4759 11.9187C13.4483 11.8911 13.4154 11.8691 13.3793 11.8541C13.3432 11.8392 13.3046 11.8315 13.2655 11.8315C13.2264 11.8315 13.1878 11.8392 13.1517 11.8541C13.1156 11.8691 13.0828 11.891 13.0552 11.9186L13.055 11.9189C13.0274 11.9465 13.0054 11.9792 12.9905 12.0153C12.9755 12.0514 12.9678 12.0901 12.9678 12.1291C12.9678 12.1682 12.9755 12.2069 12.9905 12.2429C13.0054 12.279 13.0274 12.3118 13.055 12.3394L13.0753 12.3597C13.1853 12.4722 13.2591 12.615 13.2872 12.7699C13.3147 12.9216 13.297 13.0781 13.2365 13.2198C13.1814 13.3644 13.0848 13.4896 12.9588 13.5797C12.8303 13.6717 12.677 13.7228 12.519 13.7265L12.5121 13.7266H12.4854C12.4065 13.7266 12.3309 13.7579 12.2752 13.8136C12.2195 13.8694 12.1882 13.945 12.1882 14.0238C12.1882 14.1026 12.2195 14.1782 12.2752 14.2339C12.3309 14.2897 12.4065 14.321 12.4854 14.321H12.5371C12.6907 14.3216 12.8407 14.3671 12.9688 14.4519C13.0964 14.5364 13.1966 14.6563 13.2572 14.7968C13.3202 14.9404 13.3389 15.0996 13.311 15.2539C13.2829 15.4087 13.2091 15.5516 13.099 15.6641L13.0967 15.6664L13.0789 15.6843C13.0513 15.7119 13.0292 15.7448 13.0143 15.7808C12.9993 15.8169 12.9916 15.8556 12.9916 15.8947C12.9916 15.9337 12.9993 15.9724 13.0143 16.0085C13.0292 16.0445 13.0511 16.0773 13.0788 16.1049L13.079 16.1052C13.1066 16.1328 13.1394 16.1547 13.1755 16.1697C13.2115 16.1846 13.2502 16.1923 13.2893 16.1923C13.3283 16.1923 13.367 16.1846 13.4031 16.1697C13.4392 16.1547 13.4719 16.1328 13.4995 16.1052L13.5198 16.0849C13.6323 15.9748 13.7752 15.901 13.93 15.873C14.0818 15.8455 14.2382 15.8631 14.3799 15.9236C14.5245 15.9788 14.6498 16.0754 14.7399 16.2014C14.8318 16.3299 14.883 16.4831 14.8867 16.6411L14.8867 16.6481V16.6748C14.8867 16.7536 14.918 16.8292 14.9738 16.885C15.0295 16.9407 15.1051 16.972 15.1839 16.972C15.2628 16.972 15.3383 16.9407 15.3941 16.885C15.4498 16.8292 15.4811 16.7536 15.4811 16.6748V16.6243L15.4811 16.6231C15.4817 16.4695 15.5273 16.3194 15.6121 16.1914C15.6966 16.0637 15.8165 15.9635 15.957 15.903C16.1006 15.8399 16.2597 15.8212 16.414 15.8492C16.5689 15.8773 16.7118 15.9511 16.8243 16.0611L16.8266 16.0634L16.8444 16.0813C16.872 16.1089 16.9049 16.1309 16.941 16.1459C16.9771 16.1608 17.0158 16.1685 17.0548 16.1685C17.0939 16.1685 17.1325 16.1608 17.1686 16.1459C17.2047 16.1309 17.2375 16.109 17.2651 16.0814L17.2653 16.0811C17.2929 16.0535 17.3149 16.0208 17.3298 15.9847C17.3448 15.9486 17.3525 15.9099 17.3525 15.8709C17.3525 15.8318 17.3448 15.7931 17.3298 15.7571C17.3149 15.721 17.2929 15.6882 17.2653 15.6606L17.245 15.6403C17.135 15.5278 17.0612 15.385 17.0331 15.2301C17.0051 15.0758 17.0239 14.9167 17.0869 14.7731C17.1475 14.6325 17.2477 14.5127 17.3753 14.4281C17.5034 14.3433 17.6534 14.2978 17.807 14.2972L17.8082 14.2972L17.835 14.2972C17.9138 14.2972 17.9894 14.2659 18.0451 14.2102C18.1008 14.1544 18.1322 14.0788 18.1322 14C18.1322 13.9212 18.1008 13.8456 18.0451 13.7898C17.9894 13.7341 17.9138 13.7028 17.835 13.7028H17.7844L17.7833 13.7028C17.6297 13.7022 17.4796 13.6567 17.3515 13.5719C17.2235 13.4871 17.123 13.3667 17.0625 13.2255C17.0517 13.2003 17.0445 13.1739 17.041 13.1469C16.996 13.0186 16.985 12.8805 17.0094 12.7461C17.0374 12.5913 17.1112 12.4484 17.2213 12.3359L17.2236 12.3336L17.2414 12.3157C17.2691 12.2881 17.2911 12.2552 17.306 12.2192C17.321 12.1831 17.3287 12.1444 17.3287 12.1053C17.3287 12.0663 17.321 12.0276 17.306 11.9915C17.2911 11.9555 17.2692 11.9227 17.2415 11.8951L17.2413 11.8948C17.2137 11.8672 17.1809 11.8453 17.1448 11.8303C17.1088 11.8154 17.0701 11.8077 17.031 11.8077C16.992 11.8077 16.9533 11.8154 16.9172 11.8303C16.8811 11.8453 16.8484 11.8672 16.8208 11.8948L16.8005 11.9151C16.688 12.0252 16.5451 12.099 16.3903 12.127C16.2359 12.155 16.0768 12.1363 15.9332 12.0733C15.7927 12.0127 15.6728 11.9125 15.5883 11.7849C15.5035 11.6568 15.458 11.5067 15.4574 11.3531L15.4574 11.3519V11.3252C15.4574 11.2464 15.426 11.1708 15.3703 11.115C15.3146 11.0593 15.239 11.028 15.1602 11.028ZM14.5297 10.6947C14.6969 10.5275 14.9237 10.4336 15.1602 10.4336C15.3966 10.4336 15.6234 10.5275 15.7906 10.6947C15.9578 10.8619 16.0518 11.0887 16.0518 11.3252V11.3512C16.052 11.3887 16.0632 11.4254 16.0839 11.4567C16.1047 11.4881 16.1342 11.5127 16.1688 11.5275L16.1718 11.5288C16.2071 11.5444 16.2462 11.5491 16.2842 11.5422C16.3218 11.5354 16.3565 11.5176 16.3839 11.4911L16.4002 11.4748C16.483 11.3919 16.5814 11.3261 16.6896 11.2812C16.7978 11.2364 16.9139 11.2133 17.031 11.2133C17.1482 11.2133 17.2642 11.2364 17.3725 11.2812C17.4807 11.3261 17.579 11.3919 17.6618 11.4748C17.7446 11.5575 17.8103 11.6558 17.8551 11.7639C17.9 11.8722 17.9231 11.9882 17.9231 12.1053C17.9231 12.2225 17.9 12.3385 17.8551 12.4468C17.8103 12.555 17.7446 12.6533 17.6617 12.736C17.6617 12.7361 17.6618 12.736 17.6617 12.736L17.6453 12.7524C17.6188 12.7799 17.601 12.8146 17.5942 12.8522C17.5873 12.8901 17.592 12.9293 17.6076 12.9646C17.616 12.9837 17.6223 13.0035 17.6266 13.0237C17.6406 13.0444 17.6587 13.0623 17.6797 13.0763C17.711 13.097 17.7477 13.1082 17.7852 13.1084H17.835C18.0714 13.1084 18.2982 13.2023 18.4654 13.3695C18.6326 13.5368 18.7266 13.7635 18.7266 14C18.7266 14.2365 18.6326 14.4632 18.4654 14.6305C18.2982 14.7977 18.0714 14.8916 17.835 14.8916H17.809C17.7714 14.8918 17.7348 14.903 17.7035 14.9237C17.6721 14.9445 17.6475 14.9741 17.6326 15.0087L17.6314 15.0116C17.6158 15.0469 17.6111 15.0861 17.618 15.1241C17.6248 15.1616 17.6426 15.1963 17.6691 15.2238L17.6854 15.2401C17.6854 15.2401 17.6853 15.24 17.6854 15.2401C17.7682 15.3229 17.8341 15.4213 17.8789 15.5294C17.9238 15.6377 17.9469 15.7537 17.9469 15.8709C17.9469 15.988 17.9238 16.1041 17.8789 16.2123C17.834 16.3205 17.7683 16.4189 17.6854 16.5017L17.4753 16.2914L17.6856 16.5015C17.6028 16.5843 17.5045 16.6501 17.3962 16.695C17.288 16.7399 17.172 16.7629 17.0548 16.7629C16.9376 16.7629 16.8216 16.7399 16.7134 16.695C16.6052 16.6501 16.5069 16.5844 16.4241 16.5016C16.4241 16.5015 16.4242 16.5016 16.4241 16.5016L16.4077 16.4852C16.3803 16.4587 16.3456 16.4409 16.308 16.4341C16.27 16.4272 16.2308 16.4318 16.1955 16.4474L16.1926 16.4487C16.158 16.4635 16.1284 16.4882 16.1076 16.5196C16.0869 16.5509 16.0758 16.5875 16.0755 16.625V16.6748C16.0755 16.9113 15.9816 17.1381 15.8144 17.3053C15.6472 17.4725 15.4204 17.5664 15.1839 17.5664C14.9475 17.5664 14.7207 17.4725 14.5535 17.3053C14.3863 17.1381 14.2923 16.9113 14.2923 16.6748V16.6523C14.2909 16.6145 14.2784 16.5779 14.2564 16.5471C14.2339 16.5156 14.2023 16.4916 14.166 16.4782C14.1601 16.4761 14.1543 16.4737 14.1486 16.4712C14.1132 16.4556 14.0741 16.4509 14.0361 16.4578C13.9985 16.4646 13.9638 16.4824 13.9364 16.5089L13.9201 16.5252C13.92 16.5253 13.9201 16.5252 13.9201 16.5252C13.8373 16.6081 13.7389 16.6739 13.6307 16.7188C13.5225 16.7636 13.4064 16.7867 13.2893 16.7867C13.1721 16.7867 13.0561 16.7636 12.9478 16.7188C12.8397 16.6739 12.7415 16.6083 12.6587 16.5255C12.5758 16.4427 12.51 16.3443 12.4652 16.2361C12.4203 16.1278 12.3972 16.0118 12.3972 15.8947C12.3972 15.7775 12.4203 15.6615 12.4652 15.5532C12.51 15.445 12.5758 15.3467 12.6587 15.2638L12.675 15.2476C12.7015 15.2201 12.7193 15.1854 12.7261 15.1478C12.733 15.1099 12.7283 15.0707 12.7128 15.0354L12.7115 15.0325C12.6966 14.9978 12.672 14.9683 12.6406 14.9475C12.6093 14.9268 12.5727 14.9156 12.5351 14.9154H12.4854C12.2489 14.9154 12.0221 14.8214 11.8549 14.6542C11.6877 14.487 11.5938 14.2602 11.5938 14.0238C11.5938 13.7873 11.6877 13.5605 11.8549 13.3933C12.0221 13.2261 12.2489 13.1322 12.4854 13.1322H12.5078C12.5456 13.1308 12.5822 13.1183 12.613 13.0963C12.6445 13.0737 12.6686 13.0422 12.6819 13.0058C12.6841 12.9999 12.6864 12.9941 12.689 12.9884C12.7046 12.9531 12.7092 12.9139 12.7023 12.8759C12.6955 12.8384 12.6777 12.8037 12.6512 12.7762L12.6349 12.7599C12.552 12.6771 12.4863 12.5788 12.4414 12.4706C12.3965 12.3623 12.3734 12.2463 12.3734 12.1291C12.3734 12.012 12.3965 11.8959 12.4414 11.7877C12.4862 11.6795 12.552 11.5812 12.6348 11.4984C12.7176 11.4156 12.8159 11.3499 12.9241 11.305C13.0323 11.2601 13.1483 11.2371 13.2655 11.2371C13.3827 11.2371 13.4987 11.2601 13.6069 11.305C13.7152 11.3499 13.8135 11.4157 13.8963 11.4985L13.9126 11.5148C13.9401 11.5413 13.9747 11.5591 14.0123 11.5659C14.0503 11.5728 14.0895 11.5682 14.1248 11.5526C14.1438 11.5442 14.1636 11.5378 14.1839 11.5336C14.2046 11.5195 14.2225 11.5015 14.2364 11.4804C14.2572 11.4491 14.2683 11.4125 14.2686 11.375V11.3252C14.2686 11.0887 14.3625 10.8619 14.5297 10.6947Z" fill="#333333"/>
</svg>
