<svg width="113" height="35" viewBox="0 0 113 35" fill="none" xmlns="http://www.w3.org/2000/svg">
<path d="M84.0102 16.0014C84.0568 15.1921 83.5441 14.6923 82.5412 14.6923C81.1193 14.6923 79.7744 15.7158 79.1027 17.5248C78.4266 19.3457 78.9816 20.3811 80.4416 20.3811C81.7556 20.3811 82.7948 19.6849 83.2246 18.5959H81.2314L81.7307 17.2511H85.5647L85.167 18.3222C84.3274 20.5835 82.1644 21.964 79.8412 21.964C77.264 21.964 76.1396 20.274 77.1515 17.5486C78.19 14.7518 80.666 13.1094 83.0908 13.1094C85.1602 13.1094 86.3179 14.2995 85.9399 16.0014H84.0102Z" fill="white"/>
<path d="M77.3843 13.2285L74.1849 21.8451H72.5345L70.5302 16.3705H70.454L68.4212 21.8451H66.517L69.7163 13.2285H71.3921L73.3711 18.7032H73.4599L75.4927 13.2285H77.3843Z" fill="white"/>
<path d="M68.1675 13.2285L64.9681 21.8451H63.0638L66.2632 13.2285H68.1675Z" fill="white"/>
<path d="M54.4437 21.8451L57.6431 13.2285H59.5474L58.1289 17.0489H58.2558L63.0132 13.2285H65.311L60.4515 17.0846L62.1498 21.8451H59.8646L58.6341 18.2866L57.2627 19.3815L56.348 21.8451H54.4437Z" fill="white"/>
<path d="M54.6725 17.5367C53.6297 20.3454 51.1625 21.964 48.7377 21.964C46.2875 21.964 45.0393 20.3335 46.0778 17.5367C47.1207 14.728 49.5752 13.1094 52.0254 13.1094C54.4502 13.1094 55.7154 14.728 54.6725 17.5367ZM52.7302 17.5367C53.4151 15.692 52.8595 14.6923 51.4377 14.6923C50.0158 14.6923 48.7051 15.692 48.0202 17.5367C47.3352 19.3814 47.9035 20.3811 49.3254 20.3811C50.7473 20.3811 52.0452 19.3814 52.7302 17.5367Z" fill="white"/>
<path d="M44.8845 17.5367C43.8416 20.3454 41.3744 21.964 38.9496 21.964C36.4994 21.964 35.2513 20.3335 36.2897 17.5367C37.3326 14.728 39.7871 13.1094 42.2373 13.1094C44.6621 13.1094 45.9273 14.728 44.8845 17.5367ZM42.9421 17.5367C43.627 15.692 43.0715 14.6923 41.6496 14.6923C40.2277 14.6923 38.9171 15.692 38.2321 17.5367C37.5472 19.3814 38.1154 20.3811 39.5373 20.3811C40.9592 20.3811 42.2571 19.3814 42.9421 17.5367Z" fill="white"/>
<path d="M26.5902 21.8451L29.7896 13.2285H33.4458C35.4771 13.2285 36.1524 14.1449 35.6707 15.4422C35.2951 16.4538 34.3627 17.0846 33.3354 17.2869L33.3045 17.3702C34.3278 17.4178 35.0181 18.1914 34.5453 19.4649C34.0371 20.8335 32.5697 21.8451 30.4877 21.8451H26.5902ZM30.6548 20.3694C31.7592 20.3694 32.3881 19.9409 32.6267 19.2982C32.8962 18.5722 32.5023 18.0605 31.5628 18.0605H29.8997L29.0424 20.3694H30.6548ZM31.8275 16.8346C32.6274 16.8346 33.3787 16.4181 33.635 15.7278C33.8648 15.1089 33.5414 14.6805 32.6655 14.6805H31.1547L30.3549 16.8346H31.8275Z" fill="white"/>
<rect x="2" y="4.90234" width="109" height="25" rx="12.5" stroke="white" stroke-width="3"/>
<rect x="35.5" y="3.40234" width="9" height="3" fill="#BC332D"/>
<rect x="32.5" y="28.4023" width="9" height="3" fill="#BC332D"/>
<path d="M39.1768 29.9023L32.4268 33.7995V26.0052L39.1768 29.9023Z" fill="white"/>
<path d="M37.874 4.90234L44.624 1.00523L44.624 8.79946L37.874 4.90234Z" fill="white"/>
</svg>
