<svg width="21" height="23" viewBox="0 0 21 23" fill="none" xmlns="http://www.w3.org/2000/svg">
<path fill-rule="evenodd" clip-rule="evenodd" d="M6.37521 1.68414C7.46917 0.605801 8.9529 0 10.5 0C12.0471 0 13.5308 0.605801 14.6248 1.68414C15.7188 2.76247 16.3333 4.22501 16.3333 5.75V6.9H18.6667C19.2734 6.9 19.7789 7.35846 19.8293 7.9545L20.996 21.7545C21.0231 22.075 20.9128 22.392 20.6919 22.6287C20.4709 22.8653 20.1596 23 19.8333 23H1.16667C0.840409 23 0.529055 22.8653 0.308141 22.6287C0.0872268 22.392 -0.0230607 22.075 0.0040337 21.7545L1.1707 7.9545C1.22109 7.35846 1.72657 6.9 2.33334 6.9H4.66667V5.75C4.66667 4.22501 5.28125 2.76247 6.37521 1.68414ZM4.66667 9.2V10.35C4.66667 10.9851 5.189 11.5 5.83334 11.5C6.47767 11.5 7 10.9851 7 10.35V9.2H14V10.35C14 10.9851 14.5223 11.5 15.1667 11.5C15.811 11.5 16.3333 10.9851 16.3333 10.35V9.2H17.5932L18.5654 20.7H2.4346L3.40682 9.2H4.66667ZM14 6.9H7V5.75C7 4.835 7.36875 3.95748 8.02513 3.31048C8.6815 2.66348 9.57174 2.3 10.5 2.3C11.4283 2.3 12.3185 2.66348 12.9749 3.31048C13.6312 3.95748 14 4.835 14 5.75V6.9Z" fill="#CCCCCC"/>
</svg>
