<svg width="30" height="24" viewBox="0 0 30 24" fill="none" xmlns="http://www.w3.org/2000/svg">
<path fill-rule="evenodd" clip-rule="evenodd" d="M15.0347 0.917969V22.523L6.81273 16.3566H1.16016V7.10689H6.8113L15.0347 0.917969ZM18.1179 0.924392C24.0777 0.924392 28.9092 5.75581 28.9092 11.7157C28.9092 17.6755 24.0777 22.5069 18.1179 22.5069V19.4237C22.3749 19.4237 25.8259 15.9727 25.8259 11.7157C25.8259 7.45863 22.3749 4.00761 18.1179 4.00761V0.924392ZM11.9514 7.09726L7.8419 10.1901H4.24338V13.2733H7.84047L11.9514 16.3566V7.09726ZM18.1179 7.09084C20.6721 7.09084 22.7427 9.16144 22.7427 11.7157C22.7427 14.2699 20.6721 16.3405 18.1179 16.3405V13.2573C18.9693 13.2573 19.6595 12.5671 19.6595 11.7157C19.6595 10.8643 18.9693 10.1741 18.1179 10.1741V7.09084Z" fill="#333333" stroke="white" stroke-width="0.6"/>
</svg>
