<svg width="21" height="27" viewBox="0 0 21 27" fill="none" xmlns="http://www.w3.org/2000/svg">
<rect x="1.83398" y="1.0127" width="17.4161" height="24" rx="1" fill="white" stroke="#333333" stroke-width="2"/>
<path d="M17.1518 4.57451H11.2018V5.89672H17.1518V4.57451ZM17.1518 9.86335H11.2018V11.1856H17.1518V9.86335ZM6.27 7.21893L3.92969 4.87862L4.86184 3.94646L6.26339 5.348L9.06647 2.54492L9.99863 3.47708L6.27 7.21893ZM6.27 12.5078L3.92969 10.1675L4.86184 9.2353L6.26339 10.6368L9.06647 7.83376L9.99863 8.76591L6.27 12.5078Z" fill="#333333" stroke="#333333" stroke-width="0.5"/>
<path d="M17.1518 15.5481H11.2018V16.8704H17.1518V15.5481ZM17.1518 20.837H11.2018V22.1592H17.1518V20.837ZM6.27 18.1926L3.92969 15.8523L4.86184 14.9201L6.26339 16.3216L9.06647 13.5186L9.99863 14.4507L6.27 18.1926ZM6.27 23.4814L3.92969 21.1411L4.86184 20.2089L6.26339 21.6105L9.06647 18.8074L9.99863 19.7395L6.27 23.4814Z" fill="#333333" stroke="#333333" stroke-width="0.5"/>
</svg>
