<svg width="18" height="20" viewBox="0 0 18 20" fill="none" xmlns="http://www.w3.org/2000/svg">
<path fill-rule="evenodd" clip-rule="evenodd" d="M6.87871 0.87868C7.44132 0.31607 8.20438 0 9.00003 0C9.79568 0 10.5587 0.31607 11.1213 0.87868C11.6043 1.36165 11.9056 1.99234 11.9812 2.66455C13.0719 3.17819 14.0154 3.96673 14.7159 4.95768C15.5515 6.13996 16.0002 7.5522 16 9C16 9.00004 16 8.99996 16 9V12.158C16 12.2935 16.0267 12.4279 16.0785 12.5531C16.1304 12.6783 16.2063 12.7921 16.3021 12.8879C16.3022 12.8879 16.3021 12.8879 16.3021 12.8879L17.7071 14.2929C17.9931 14.5789 18.0787 15.009 17.9239 15.3827C17.7691 15.7564 17.4045 16 17 16H13C13 17.0609 12.5786 18.0783 11.8285 18.8284C11.0783 19.5786 10.0609 20 9.00003 20C7.93916 20 6.92175 19.5786 6.1716 18.8284C5.42146 18.0783 5.00003 17.0609 5.00003 16H1.00003C0.595567 16 0.230931 15.7564 0.0761496 15.3827C-0.0786313 15.009 0.00692445 14.5789 0.292923 14.2929L1.69792 12.8879C1.8914 12.6944 2.00003 12.4318 2.00003 12.159V9C2.00003 6.19928 3.64515 3.78419 6.01881 2.66475C6.09439 1.99246 6.39569 1.3617 6.87871 0.87868ZM7.00003 16C7.00003 16.5304 7.21074 17.0391 7.58581 17.4142C7.96089 17.7893 8.4696 18 9.00003 18C9.53046 18 10.0392 17.7893 10.4142 17.4142C10.7893 17.0391 11 16.5304 11 16H7.00003ZM9.00003 2C8.73481 2 8.48046 2.10536 8.29292 2.29289C8.10539 2.48043 8.00003 2.73478 8.00003 3V3.341C8.00003 3.76475 7.73295 4.1425 7.33344 4.28378C5.39031 4.97097 4.00003 6.82501 4.00003 9V12.159C4.00003 12.8276 3.77873 13.4742 3.37664 14H14.6235C14.4638 13.7912 14.3316 13.5621 14.2307 13.3182C14.0784 12.9504 14 12.5561 14 12.158C14 12.1579 14 12.1581 14 12.158V9C14.0002 7.96571 13.6797 6.95669 13.0827 6.11209C12.4857 5.26749 11.6415 4.62872 10.6665 4.28373C10.267 4.1424 10 3.7647 10 3.341V3C10 2.73478 9.89467 2.48043 9.70714 2.29289C9.5196 2.10536 9.26525 2 9.00003 2Z" fill="white"/>
</svg>
