<svg width="57" height="39" viewBox="0 0 57 39" fill="none" xmlns="http://www.w3.org/2000/svg">
<ellipse cx="28.4893" cy="31.6152" rx="28.1494" ry="6.85352" fill="#EF6236"/>
<ellipse cx="28.4893" cy="30.8813" rx="28.1494" ry="6.11963" fill="#88B931"/>
<ellipse cx="28.4893" cy="29.8817" rx="10.3174" ry="2.24298" fill="#6D873E"/>
<path fill-rule="evenodd" clip-rule="evenodd" d="M28.4882 28.3122C27.8135 29.3243 27.8128 29.3238 27.8128 29.3238L27.8094 29.3215L27.8012 29.3161L27.7734 29.2972C27.7497 29.2811 27.7159 29.258 27.6727 29.2281C27.5863 29.1683 27.4621 29.0811 27.3056 28.9681C26.9927 28.7421 26.5497 28.4122 26.0199 27.9903C24.9623 27.1481 23.5489 25.9315 22.1314 24.4352C19.3461 21.4952 16.3242 17.2453 16.3242 12.499C16.3242 9.27287 17.6058 6.17891 19.887 3.89772C22.1682 1.61652 25.2621 0.334961 28.4882 0.334961C31.7143 0.334961 34.8083 1.61652 37.0895 3.89772C39.3707 6.17891 40.6522 9.27287 40.6522 12.499C40.6522 17.2453 37.6304 21.4952 34.8451 24.4352C33.4276 25.9315 32.0142 27.1481 30.9565 27.9903C30.4267 28.4122 29.9837 28.7421 29.6708 28.9681C29.5143 29.0811 29.3902 29.1683 29.3038 29.2281C29.2605 29.258 29.2268 29.2811 29.2031 29.2972L29.1752 29.3161L29.1671 29.3215L29.1645 29.3232C29.1645 29.3232 29.163 29.3243 28.4882 28.3122ZM28.4882 28.3122L29.163 29.3243C28.7544 29.5967 28.2214 29.5962 27.8128 29.3238L28.4882 28.3122Z" fill="white"/>
<path fill-rule="evenodd" clip-rule="evenodd" d="M40.5443 13.8764C40.0357 18.0596 37.3326 21.7743 34.8218 24.4246C34.5444 24.7174 34.2671 24.9995 33.9927 25.2702L25.6621 18.7419L36.0683 8.30176C37.2682 9.78598 39.2073 12.1936 40.5443 13.8764Z" fill="#A2C2E9"/>
<ellipse cx="28.4674" cy="11.4185" rx="8.5455" ry="8.5455" fill="#F7F3F1"/>
<path fill-rule="evenodd" clip-rule="evenodd" d="M35.8507 15.7239C36.5895 14.4596 37.0129 12.9885 37.0129 11.4185C37.0129 9.9392 36.637 8.54766 35.9755 7.33422C35.4663 6.3819 34.8001 5.58201 34.0342 4.93482C32.5388 3.6497 30.5938 2.87305 28.4674 2.87305C23.7478 2.87305 19.9219 6.699 19.9219 11.4185C19.9219 16.1381 23.7478 19.964 28.4674 19.964C29.8988 19.964 31.2481 19.6121 32.4333 18.99C33.615 18.4841 34.9342 17.3226 35.8507 15.7239ZM35.8507 15.7239C36.8545 13.9728 37.375 11.6971 36.7022 9.18394C36.5228 8.51408 36.2766 7.89749 35.9755 7.33422C35.4774 6.42061 34.8175 5.60797 34.0342 4.93482C32.3048 3.47343 30.0672 2.79071 27.9831 2.88996C24.5825 3.83845 22.8474 8.12644 24.1153 12.6725C25.3833 17.2185 28.8462 20.0133 32.2467 19.0648C32.3085 19.0417 32.3707 19.0168 32.4333 18.99C33.8559 18.2433 35.0422 17.1074 35.8507 15.7239Z" fill="#CDE2FF"/>
<ellipse cx="24.8049" cy="5.05392" rx="0.820524" ry="0.820524" fill="#CDE2FF"/>
<ellipse cx="24.2561" cy="7.43673" rx="0.820524" ry="0.820524" fill="#CDE2FF"/>
<ellipse cx="24.1838" cy="10.2502" rx="0.820524" ry="0.820524" fill="#CDE2FF"/>
<ellipse cx="26.842" cy="6.4631" rx="0.820524" ry="0.820524" fill="#CDE2FF"/>
<ellipse cx="26.3615" cy="9.01681" rx="0.820524" ry="0.820524" fill="#CDE2FF"/>
<ellipse cx="26.9084" cy="11.4201" rx="0.820524" ry="0.820524" fill="#CDE2FF"/>
<ellipse cx="27.6467" cy="13.8264" rx="0.820524" ry="0.820524" fill="#CDE2FF"/>
<ellipse cx="29.6682" cy="11.9983" rx="0.820524" ry="0.820524" fill="#CDE2FF"/>
<ellipse cx="28.9514" cy="9.72189" rx="0.820524" ry="0.820524" fill="#CDE2FF"/>
<ellipse cx="33.1194" cy="14.7756" rx="0.820524" ry="0.820524" fill="#CDE2FF"/>
<ellipse cx="31.4787" cy="10.5432" rx="0.820524" ry="0.820524" fill="#CDE2FF"/>
<ellipse cx="29.3108" cy="7.25705" rx="0.820524" ry="0.820524" fill="#CDE2FF"/>
<ellipse cx="24.7717" cy="12.9817" rx="0.820524" ry="0.820524" fill="#CDE2FF"/>
<ellipse cx="25.7404" cy="15.5959" rx="0.820524" ry="0.820524" fill="#CDE2FF"/>
<ellipse cx="27.426" cy="17.9397" rx="0.820524" ry="0.820524" fill="#CDE2FF"/>
</svg>
