<svg width="21" height="25" viewBox="0 0 21 25" fill="none" xmlns="http://www.w3.org/2000/svg">
<path fill-rule="evenodd" clip-rule="evenodd" d="M6.37521 2.54253C7.46917 1.44857 8.9529 0.833984 10.5 0.833984C12.0471 0.833984 13.5308 1.44857 14.6248 2.54253C15.7188 3.63649 16.3333 5.12022 16.3333 6.66732V7.83398H18.6667C19.2734 7.83398 19.7789 8.29909 19.8293 8.90376L20.996 22.9038C21.0231 23.2289 20.9128 23.5505 20.6919 23.7906C20.4709 24.0307 20.1596 24.1673 19.8333 24.1673H1.16667C0.840409 24.1673 0.529055 24.0307 0.308141 23.7906C0.0872268 23.5505 -0.0230607 23.2289 0.0040337 22.9038L1.1707 8.90376C1.22109 8.29909 1.72657 7.83398 2.33334 7.83398H4.66667V6.66732C4.66667 5.12022 5.28125 3.63649 6.37521 2.54253ZM4.66667 10.1673V11.334C4.66667 11.9783 5.189 12.5006 5.83334 12.5006C6.47767 12.5006 7 11.9783 7 11.334V10.1673H14V11.334C14 11.9783 14.5223 12.5006 15.1667 12.5006C15.811 12.5006 16.3333 11.9783 16.3333 11.334V10.1673H17.5932L18.5654 21.834H2.4346L3.40682 10.1673H4.66667ZM14 7.83398H7V6.66732C7 5.73906 7.36875 4.84882 8.02513 4.19244C8.6815 3.53607 9.57174 3.16732 10.5 3.16732C11.4283 3.16732 12.3185 3.53607 12.9749 4.19244C13.6312 4.84882 14 5.73906 14 6.66732V7.83398Z" fill="#EACBD1"/>
</svg>
