<svg width="23" height="24" viewBox="0 0 23 24" fill="none" xmlns="http://www.w3.org/2000/svg">
<path fill-rule="evenodd" clip-rule="evenodd" d="M7.40858 6.1239C7.14032 6.1239 6.88304 6.22853 6.69335 6.41478C6.50366 6.60102 6.39709 6.85362 6.39709 7.11701V17.048C6.39709 17.3114 6.50366 17.564 6.69335 17.7503C6.88304 17.9365 7.14032 18.0411 7.40858 18.0411H15.5005C15.7688 18.0411 16.0261 17.9365 16.2158 17.7503C16.4055 17.564 16.512 17.3114 16.512 17.048V10.5077L12.0472 6.12401L7.40858 6.1239ZM5.26288 5.01032C5.83196 4.45159 6.60379 4.1377 7.40858 4.1377H12.0473C12.5837 4.13781 13.0984 4.3471 13.4777 4.71955M13.4777 4.71955L17.9423 9.103C17.9422 9.10297 17.9423 9.10304 17.9423 9.103C18.3216 9.47539 18.5349 9.98057 18.535 10.5072V17.048C18.535 17.8382 18.2153 18.596 17.6462 19.1547C17.0772 19.7135 16.3053 20.0274 15.5005 20.0274H14.489V21.0205C14.489 21.8106 14.1693 22.5684 13.6003 23.1271C13.0312 23.6859 12.2594 23.9998 11.4546 23.9998H3.36261C2.55781 23.9998 1.78598 23.6859 1.2169 23.1271C0.647828 22.5684 0.328125 21.8106 0.328125 21.0205V11.0894C0.328125 10.2993 0.647828 9.54146 1.2169 8.98273C1.78598 8.424 2.55781 8.11011 3.36261 8.11011H4.3741V7.11701C4.3741 6.32684 4.69381 5.56904 5.26288 5.01032M4.3741 10.0963H3.36261C3.09434 10.0963 2.83706 10.2009 2.64737 10.3872C2.45768 10.5734 2.35111 10.826 2.35111 11.0894V21.0205C2.35111 21.2838 2.45768 21.5364 2.64737 21.7227C2.83707 21.9089 3.09434 22.0136 3.36261 22.0136H11.4546C11.7228 22.0136 11.9801 21.9089 12.1698 21.7227C12.3595 21.5364 12.4661 21.2838 12.4661 21.0205V20.0274H7.40858C6.60379 20.0274 5.83196 19.7135 5.26288 19.1547C4.69381 18.596 4.3741 17.8382 4.3741 17.048V10.0963Z" fill="#333333"/>
<path d="M6.12082 18.62C5.98289 15.4476 5.70703 7.69588 5.70703 7.03381C5.70703 6.67623 5.78827 3.26734 6.94841 2.06762C7.93635 1.04598 10.005 2.19516 10.2588 2.06829L16.4657 3.30967L20.1898 9.51656L19.3622 14.4821L16.4657 19.0338L6.12082 18.62Z" fill="white"/>
<path fill-rule="evenodd" clip-rule="evenodd" d="M11.5473 1.98621C11.279 1.98621 11.0217 2.09084 10.832 2.27708C10.6423 2.46332 10.5358 2.71592 10.5358 2.97931V12.9103C10.5358 13.1737 10.6423 13.4263 10.832 13.6126C11.0217 13.7988 11.279 13.9034 11.5473 13.9034H19.6392C19.9075 13.9034 20.1648 13.7988 20.3544 13.6126C20.5441 13.4263 20.6507 13.1737 20.6507 12.9103V6.36998L16.1859 1.98631L11.5473 1.98621ZM9.40155 0.87262C9.97063 0.313891 10.7425 0 11.5473 0H16.186C16.7224 0.000112527 17.237 0.209407 17.6163 0.581853M17.6163 0.581853L22.081 4.96531C22.0809 4.96527 22.081 4.96534 22.081 4.96531C22.4603 5.3377 22.6736 5.84287 22.6737 6.36955V12.9103C22.6737 13.7005 22.354 14.4583 21.7849 15.017C21.2158 15.5758 20.444 15.8897 19.6392 15.8897H18.6277V16.8828C18.6277 17.6729 18.308 18.4307 17.7389 18.9894C17.1699 19.5482 16.398 19.8621 15.5932 19.8621H7.50128C6.69648 19.8621 5.92465 19.5482 5.35558 18.9894C4.7865 18.4307 4.4668 17.6729 4.4668 16.8828V6.95172C4.4668 6.16156 4.7865 5.40376 5.35558 4.84503C5.92465 4.2863 6.69648 3.97241 7.50128 3.97241H8.51277V2.97931C8.51277 2.18915 8.83248 1.43135 9.40155 0.87262M8.51277 5.95862H7.50128C7.23301 5.95862 6.97574 6.06325 6.78605 6.24949C6.59635 6.43574 6.48979 6.68834 6.48979 6.95172V16.8828C6.48979 17.1461 6.59635 17.3987 6.78605 17.585C6.97574 17.7712 7.23301 17.8759 7.50128 17.8759H15.5932C15.8615 17.8759 16.1188 17.7712 16.3085 17.585C16.4982 17.3987 16.6047 17.1461 16.6047 16.8828V15.8897H11.5473C10.7425 15.8897 9.97063 15.5758 9.40155 15.017C8.83248 14.4583 8.51277 13.7005 8.51277 12.9103V5.95862Z" fill="#333333"/>
</svg>
