<svg width="18" height="23" viewBox="0 0 18 23" fill="none" xmlns="http://www.w3.org/2000/svg">
<path fill-rule="evenodd" clip-rule="evenodd" d="M7.875 2.3C7.57663 2.3 7.29048 2.42116 7.0795 2.63683C6.86853 2.85249 6.75 3.145 6.75 3.45C6.75 3.755 6.86853 4.04751 7.0795 4.26317C7.29048 4.47884 7.57663 4.6 7.875 4.6H10.125C10.4234 4.6 10.7095 4.47884 10.9205 4.26317C11.1315 4.04751 11.25 3.755 11.25 3.45C11.25 3.145 11.1315 2.85249 10.9205 2.63683C10.7095 2.42116 10.4234 2.3 10.125 2.3H7.875ZM5.48852 1.01048C6.12145 0.363481 6.97989 0 7.875 0H10.125C11.0201 0 11.8786 0.363481 12.5115 1.01048C12.8708 1.3778 13.1408 1.81941 13.307 2.3H14.625C15.5201 2.3 16.3785 2.66348 17.0115 3.31048C17.6444 3.95748 18 4.835 18 5.75V19.55C18 20.465 17.6444 21.3425 17.0115 21.9895C16.3785 22.6365 15.5201 23 14.625 23H3.375C2.47989 23 1.62145 22.6365 0.988515 21.9895C0.355579 21.3425 0 20.465 0 19.55V5.75C0 4.835 0.355579 3.95748 0.988515 3.31048C1.62145 2.66348 2.47989 2.3 3.375 2.3H4.69302C4.85925 1.81941 5.12919 1.3778 5.48852 1.01048ZM4.69302 4.6H3.375C3.07663 4.6 2.79048 4.72116 2.5795 4.93683C2.36853 5.15249 2.25 5.445 2.25 5.75V19.55C2.25 19.855 2.36853 20.1475 2.5795 20.3632C2.79048 20.5788 3.07663 20.7 3.375 20.7H14.625C14.9234 20.7 15.2095 20.5788 15.4205 20.3632C15.6315 20.1475 15.75 19.855 15.75 19.55V5.75C15.75 5.445 15.6315 5.15249 15.4205 4.93683C15.2095 4.72116 14.9234 4.6 14.625 4.6H13.307C13.1408 5.08059 12.8708 5.5222 12.5115 5.88952C11.8786 6.53652 11.0201 6.9 10.125 6.9H7.875C6.97989 6.9 6.12145 6.53652 5.48852 5.88952C5.12919 5.5222 4.85925 5.08059 4.69302 4.6ZM4.5 11.5C4.5 10.8649 5.00368 10.35 5.625 10.35H5.63625C6.25757 10.35 6.76125 10.8649 6.76125 11.5C6.76125 12.1351 6.25757 12.65 5.63625 12.65H5.625C5.00368 12.65 4.5 12.1351 4.5 11.5ZM7.875 11.5C7.875 10.8649 8.37868 10.35 9 10.35H12.375C12.9963 10.35 13.5 10.8649 13.5 11.5C13.5 12.1351 12.9963 12.65 12.375 12.65H9C8.37868 12.65 7.875 12.1351 7.875 11.5ZM4.5 16.1C4.5 15.4649 5.00368 14.95 5.625 14.95H5.63625C6.25757 14.95 6.76125 15.4649 6.76125 16.1C6.76125 16.7351 6.25757 17.25 5.63625 17.25H5.625C5.00368 17.25 4.5 16.7351 4.5 16.1ZM7.875 16.1C7.875 15.4649 8.37868 14.95 9 14.95H12.375C12.9963 14.95 13.5 15.4649 13.5 16.1C13.5 16.7351 12.9963 17.25 12.375 17.25H9C8.37868 17.25 7.875 16.7351 7.875 16.1Z" fill="#CCCCCC"/>
</svg>
