<svg width="21" height="28" viewBox="0 0 21 28" fill="none" xmlns="http://www.w3.org/2000/svg">
<path fill-rule="evenodd" clip-rule="evenodd" d="M1.15327 2.02827C1.89169 1.28984 2.89321 0.875 3.9375 0.875H11.2691C11.9652 0.875149 12.633 1.15176 13.1251 1.64398M13.1251 1.64398L20.2309 8.74972C20.2308 8.74967 20.2309 8.74977 20.2309 8.74972C20.7231 9.24188 20.9999 9.90953 21 10.6056V23.1875C21 24.2318 20.5852 25.2333 19.8467 25.9717C19.1083 26.7102 18.1068 27.125 17.0625 27.125H3.9375C2.89321 27.125 1.89169 26.7102 1.15327 25.9717C0.414843 25.2333 0 24.2318 0 23.1875V4.8125C0 3.76821 0.414842 2.76669 1.15327 2.02827M3.9375 3.5C3.5894 3.5 3.25556 3.63828 3.00942 3.88442C2.76328 4.13056 2.625 4.4644 2.625 4.8125V23.1875C2.625 23.5356 2.76328 23.8694 3.00942 24.1156C3.25556 24.3617 3.5894 24.5 3.9375 24.5H17.0625C17.4106 24.5 17.7444 24.3617 17.9906 24.1156C18.2367 23.8694 18.375 23.5356 18.375 23.1875L18.375 10.6062L11.269 3.50014L3.9375 3.5Z" fill="#333333"/>
</svg>
