<svg width="150" height="140" viewBox="0 0 150 140" fill="none" xmlns="http://www.w3.org/2000/svg">
<path d="M75 60.0536C66.75 60.0536 60 66.8097 60 75.067C60 83.3244 66.75 90.0804 75 90.0804C83.25 90.0804 90 83.3244 90 75.067C90 66.8097 83.25 60.0536 75 60.0536ZM120 75.067C120 50.2198 99.825 30.0268 75 30.0268C50.175 30.0268 30 50.2198 30 75.067C30 91.7319 39.075 106.22 52.5 114.027L60 100.965C51.075 95.7105 45 86.1769 45 75.067C45 58.4772 58.425 45.0402 75 45.0402C91.575 45.0402 105 58.4772 105 75.067C105 86.1769 98.925 95.7105 90 100.965L97.5 114.027C110.925 106.22 120 91.7319 120 75.067ZM75 0C33.6 0 0 33.63 0 75.067C0 102.842 15.075 127.013 37.425 140L44.925 127.013C27.075 116.579 15 97.2869 15 75.067C15 41.8874 41.85 15.0134 75 15.0134C108.15 15.0134 135 41.8874 135 75.067C135 97.2869 122.925 116.579 105 127.013L112.5 140C134.925 127.013 150 102.842 150 75.067C150 33.63 116.4 0 75 0Z" fill="#333333"/>
</svg>
