<svg width="111" height="222" viewBox="0 0 111 222" fill="none" xmlns="http://www.w3.org/2000/svg">
<ellipse cx="51.8428" cy="160.222" rx="10.8429" ry="6.67255" transform="rotate(1.79995 51.8428 160.222)" fill="#666E58"/>
<path d="M108.951 216.673C109.91 217.222 110.243 218.443 109.695 219.402V219.402C109.146 220.361 107.925 220.694 106.966 220.146L24.5139 172.999L26.4994 169.526L108.951 216.673Z" fill="#666E58"/>
<ellipse cx="26.5" cy="165" rx="19.5" ry="12" fill="#666E58"/>
<circle cx="48" cy="153" r="10" fill="#FDFCE0"/>
<path d="M0 11.5C12.8 17.5 21.6667 11 24.5 7V32.5C14.5 42.9 4 36.8333 0 32.5V11.5Z" fill="#F03C33"/>
<path d="M24 2C24 0.895433 24.8954 0 26 0V0C27.1046 0 28 0.895431 28 2V171H24V2Z" fill="#FDFCE0"/>
<path d="M26.5639 170.3C18.9534 170.3 13.6374 171.825 11.9707 172.991C14.2618 174.553 17.9859 177.011 26.5639 177.011C32.5405 177.011 38.5155 174.876 41.0248 173.01C39.8581 172.177 34.2975 170.3 26.5639 170.3Z" fill="#1D0C05"/>
</svg>
