<svg width="140" height="140" viewBox="0 0 140 140" fill="none" xmlns="http://www.w3.org/2000/svg">
<path d="M43.75 8.75H8.75V43.75H43.75V8.75ZM52.5 0V52.5H0V0H52.5ZM17.5 17.5H35V35H17.5V17.5ZM131.25 8.75H96.25V43.75H131.25V8.75ZM140 0V52.5H87.5V0H140ZM105 17.5H122.5V35H105V17.5ZM43.75 96.25H8.75V131.25H43.75V96.25ZM52.5 87.5V140H0V87.5H52.5ZM17.5 105H35V122.5H17.5V105ZM61.25 0H70V8.75H61.25V0ZM70 8.75H78.75V17.5H70V8.75ZM61.25 17.5H70V26.25H61.25V17.5ZM70 26.25H78.75V35H70V26.25ZM61.25 35H70V43.75H61.25V35ZM70 43.75H78.75V52.5H70V43.75ZM61.25 52.5H70V61.25H61.25V52.5ZM61.25 70H70V78.75H61.25V70ZM70 78.75H78.75V87.5H70V78.75ZM61.25 87.5H70V96.25H61.25V87.5ZM70 96.25H78.75V105H70V96.25ZM61.25 105H70V113.75H61.25V105ZM70 113.75H78.75V122.5H70V113.75ZM61.25 122.5H70V131.25H61.25V122.5ZM70 131.25H78.75V140H70V131.25ZM131.25 70H140V78.75H131.25V70ZM8.75 70H17.5V78.75H8.75V70ZM17.5 61.25H26.25V70H17.5V61.25ZM0 61.25H8.75V70H0V61.25ZM35 61.25H43.75V70H35V61.25ZM43.75 70H52.5V78.75H43.75V70ZM52.5 61.25H61.25V70H52.5V61.25ZM78.75 70H87.5V78.75H78.75V70ZM87.5 61.25H96.25V70H87.5V61.25ZM96.25 70H105V78.75H96.25V70ZM105 61.25H113.75V70H105V61.25ZM113.75 70H122.5V78.75H113.75V70ZM122.5 61.25H131.25V70H122.5V61.25ZM131.25 87.5H140V96.25H131.25V87.5ZM78.75 87.5H87.5V96.25H78.75V87.5ZM87.5 78.75H96.25V87.5H87.5V78.75ZM96.25 87.5H105V96.25H96.25V87.5ZM113.75 87.5H122.5V96.25H113.75V87.5ZM122.5 78.75H131.25V87.5H122.5V78.75ZM131.25 105H140V113.75H131.25V105ZM78.75 105H87.5V113.75H78.75V105ZM87.5 96.25H96.25V105H87.5V96.25ZM105 96.25H113.75V105H105V96.25ZM113.75 105H122.5V113.75H113.75V105ZM122.5 96.25H131.25V105H122.5V96.25ZM131.25 122.5H140V131.25H131.25V122.5ZM87.5 113.75H96.25V122.5H87.5V113.75ZM96.25 122.5H105V131.25H96.25V122.5ZM105 113.75H113.75V122.5H105V113.75ZM113.75 122.5H122.5V131.25H113.75V122.5ZM87.5 131.25H96.25V140H87.5V131.25ZM105 131.25H113.75V140H105V131.25ZM122.5 131.25H131.25V140H122.5V131.25Z" fill="#333333"/>
</svg>
