<svg width="185" height="29" viewBox="0 0 185 29" fill="none" xmlns="http://www.w3.org/2000/svg">
<path d="M2.26367 28V1.13281H20.2988V5.73438H7.83008V12.2656H19.3711V16.8672H7.83008V23.3984H20.3359V28H2.26367ZM24.6406 1.13281H31.543L39.002 19.3535H39.2988L46.7578 1.13281H53.6602V28H48.2422V10.4102H48.0195L41.0059 27.8887H37.2949L30.2812 10.3359H30.0586V28H24.6406V1.13281ZM70.582 12.377V16.7559H58.3359V12.377H70.582ZM97.6719 1.13281V28H92.8477L81.0469 10.9297H80.8242V28H75.2578V1.13281H80.1562L91.8828 18.2031H92.1426V1.13281H97.6719ZM102.199 28V1.13281H120.234V5.73438H107.766V12.2656H119.307V16.8672H107.766V23.3984H120.271V28H102.199ZM149.18 14.5664C149.18 23.3242 143.725 28.3711 136.637 28.3711C129.475 28.3711 124.057 23.2871 124.057 14.5664C124.057 5.80859 129.475 0.761719 136.637 0.761719C143.725 0.761719 149.18 5.80859 149.18 14.5664ZM143.502 14.5664C143.502 8.81445 140.793 5.69727 136.637 5.69727C132.48 5.69727 129.734 8.81445 129.734 14.5664C129.734 20.3184 132.48 23.4355 136.637 23.4355C140.793 23.4355 143.502 20.3184 143.502 14.5664Z" fill="white"/>
<path d="M155.92 28.584C155.472 28.76 155 28.728 154.504 28.488C154.024 28.264 153.608 27.904 153.256 27.408C153.192 27.312 153.112 27.16 153.016 26.952C152.936 26.76 152.856 26.56 152.776 26.352C152.712 26.144 152.672 25.96 152.656 25.8C152.64 25.64 152.656 25.544 152.704 25.512C152.752 25.464 152.832 25.448 152.944 25.464C153.056 25.48 153.16 25.52 153.256 25.584C153.368 25.648 153.44 25.728 153.472 25.824C153.52 25.936 153.592 26.08 153.688 26.256C153.8 26.432 153.92 26.592 154.048 26.736C154.176 26.88 154.272 26.96 154.336 26.976C154.64 27.12 154.864 27.184 155.008 27.168C155.152 27.152 155.28 27.104 155.392 27.024C155.664 26.816 155.888 26.544 156.064 26.208C156.24 25.872 156.44 25.352 156.664 24.648C156.84 24.056 157.016 23.432 157.192 22.776C157.384 22.104 157.552 21.584 157.696 21.216C157.744 21.024 157.8 20.864 157.864 20.736C157.944 20.592 158.016 20.488 158.08 20.424H158.224C157.872 20.648 157.56 20.904 157.288 21.192C157.016 21.48 156.672 21.712 156.256 21.888C156.16 22 155.92 22.072 155.536 22.104C155.168 22.12 154.808 22.072 154.456 21.96C154.232 21.832 154.064 21.736 153.952 21.672C153.856 21.608 153.776 21.52 153.712 21.408C153.664 21.296 153.592 21.12 153.496 20.88C153.384 20.64 153.368 20.248 153.448 19.704C153.528 19.16 153.672 18.616 153.88 18.072C154.072 17.672 154.352 17.24 154.72 16.776C155.088 16.312 155.48 15.896 155.896 15.528C156.312 15.144 156.688 14.904 157.024 14.808C157.152 14.744 157.288 14.704 157.432 14.688C157.592 14.656 157.816 14.68 158.104 14.76C158.376 14.792 158.584 14.856 158.728 14.952C158.872 15.032 159.104 15.208 159.424 15.48C159.632 15.688 159.8 15.896 159.928 16.104C160.072 16.312 160.184 16.528 160.264 16.752C160.376 16.992 160.416 17.216 160.384 17.424C160.368 17.616 160.28 17.816 160.12 18.024C159.976 18.232 159.824 18.44 159.664 18.648C159.504 18.856 159.384 19.144 159.304 19.512C159.224 19.992 159.096 20.536 158.92 21.144C158.744 21.736 158.592 22.288 158.464 22.8L158.08 24.288C157.68 25.648 157.296 26.656 156.928 27.312C156.576 27.984 156.24 28.408 155.92 28.584ZM155.056 20.904C155.376 20.888 155.68 20.824 155.968 20.712C156.256 20.6 156.536 20.416 156.808 20.16C157.08 19.888 157.352 19.544 157.624 19.128C157.896 18.744 158.088 18.344 158.2 17.928C158.312 17.496 158.352 17.08 158.32 16.68C158.304 16.424 158.264 16.256 158.2 16.176C158.136 16.096 158 16.072 157.792 16.104C157.488 16.152 157.152 16.32 156.784 16.608C156.416 16.88 156.072 17.224 155.752 17.64C155.512 17.96 155.312 18.344 155.152 18.792C154.992 19.272 154.896 19.728 154.864 20.16C154.832 20.592 154.896 20.84 155.056 20.904ZM163.587 23.64C163.379 23.64 163.211 23.6 163.083 23.52C162.971 23.44 162.827 23.328 162.651 23.184C162.347 22.864 162.131 22.56 162.003 22.272C161.875 21.968 161.835 21.68 161.883 21.408C161.931 21.28 161.947 21.16 161.931 21.048C161.931 20.92 161.931 20.856 161.931 20.856C161.851 20.776 161.827 20.728 161.859 20.712C161.891 20.68 161.923 20.632 161.955 20.568C162.051 20.568 162.083 20.48 162.051 20.304C162.019 20.176 162.083 19.896 162.243 19.464C162.403 19.032 162.603 18.624 162.843 18.24C162.939 18.08 163.083 17.872 163.275 17.616C163.467 17.344 163.675 17.08 163.899 16.824C164.139 16.552 164.355 16.336 164.547 16.176C164.947 15.84 165.299 15.592 165.603 15.432C165.907 15.272 166.235 15.152 166.587 15.072C166.939 14.992 167.179 14.952 167.307 14.952C167.451 14.952 167.643 15.08 167.883 15.336C168.251 15.496 168.515 15.688 168.675 15.912C168.851 16.136 168.963 16.464 169.011 16.896C169.059 17.376 169.019 17.928 168.891 18.552C168.779 19.16 168.403 19.92 167.763 20.832C167.363 21.408 166.995 21.84 166.659 22.128C166.323 22.4 165.923 22.672 165.459 22.944C165.123 23.168 164.819 23.336 164.547 23.448C164.275 23.544 163.955 23.608 163.587 23.64ZM165.891 21.096C166.275 20.664 166.579 20.256 166.803 19.872C167.043 19.488 167.267 19 167.475 18.408C167.539 18.232 167.579 18.016 167.595 17.76C167.611 17.488 167.603 17.24 167.571 17.016C167.555 16.776 167.499 16.64 167.403 16.608C167.211 16.496 166.979 16.464 166.707 16.512C166.435 16.544 166.139 16.696 165.819 16.968C165.323 17.384 164.891 17.904 164.523 18.528C164.155 19.136 163.795 19.832 163.443 20.616C163.203 21.192 163.147 21.656 163.275 22.008C163.419 22.344 163.715 22.464 164.163 22.368C164.627 22.256 165.203 21.832 165.891 21.096ZM170.776 22.872C170.616 22.776 170.496 22.68 170.416 22.584C170.336 22.488 170.296 22.352 170.296 22.176C170.296 21.936 170.328 21.688 170.392 21.432C170.456 21.16 170.52 20.896 170.584 20.64C170.616 20.352 170.656 20.064 170.704 19.776C170.768 19.472 170.88 19.192 171.04 18.936C171.216 18.328 171.4 17.728 171.592 17.136C171.784 16.528 171.952 15.904 172.096 15.264C172.304 14.672 172.488 14.152 172.648 13.704C172.824 13.24 173.04 12.656 173.296 11.952C173.44 11.552 173.56 11.128 173.656 10.68C173.768 10.216 173.936 9.8 174.16 9.432C174.256 9.288 174.328 9.168 174.376 9.072C174.44 8.96 174.504 8.856 174.568 8.76C174.584 8.696 174.632 8.656 174.712 8.64C174.808 8.624 174.912 8.632 175.024 8.664C175.136 8.696 175.224 8.752 175.288 8.832C175.336 8.816 175.392 8.864 175.456 8.976C175.536 9.072 175.608 9.184 175.672 9.312C175.736 9.44 175.76 9.552 175.744 9.648C175.744 9.712 175.728 9.8 175.696 9.912C175.68 10.024 175.64 10.128 175.576 10.224C175.512 10.288 175.448 10.384 175.384 10.512C175.336 10.624 175.256 10.784 175.144 10.992C175.08 11.2 175.024 11.416 174.976 11.64C174.928 11.848 174.864 12.04 174.784 12.216C174.72 12.408 174.64 12.592 174.544 12.768C174.464 12.944 174.408 13.088 174.376 13.2C174.264 13.568 174.128 13.928 173.968 14.28C173.824 14.632 173.696 15.008 173.584 15.408C173.472 15.792 173.36 16.192 173.248 16.608C173.136 17.008 172.976 17.392 172.768 17.76C172.656 17.936 172.576 18.16 172.528 18.432C172.48 18.704 172.432 18.976 172.384 19.248C172.288 19.536 172.2 19.808 172.12 20.064C172.056 20.304 172.024 20.456 172.024 20.52C171.928 20.872 171.856 21.224 171.808 21.576C171.776 21.912 171.696 22.208 171.568 22.464C171.552 22.624 171.52 22.752 171.472 22.848C171.424 22.944 171.344 23 171.232 23.016C171.12 23.016 170.968 22.968 170.776 22.872ZM175.815 26.4C175.703 26.368 175.583 26.304 175.455 26.208C175.327 26.128 175.263 26.056 175.263 25.992C175.279 25.88 175.303 25.776 175.335 25.68C175.367 25.6 175.391 25.52 175.407 25.44C175.439 25.28 175.455 25.088 175.455 24.864C175.455 24.656 175.479 24.256 175.527 23.664C175.575 23.024 175.615 22.488 175.647 22.056C175.695 21.624 175.743 21.24 175.791 20.904C175.839 20.552 175.895 20.2 175.959 19.848C176.039 19.496 176.135 19.08 176.247 18.6C176.327 18.056 176.327 17.72 176.247 17.592C176.183 17.464 176.063 17.392 175.887 17.376C175.583 17.344 175.311 17.296 175.071 17.232C174.847 17.152 174.703 17.016 174.639 16.824C174.479 16.664 174.439 16.536 174.519 16.44C174.599 16.344 174.759 16.272 174.999 16.224C175.255 16.16 175.527 16.136 175.815 16.152C176.087 16.136 176.295 16.12 176.439 16.104C176.599 16.072 176.727 15.992 176.823 15.864C176.919 15.72 177.015 15.48 177.111 15.144C177.143 15 177.199 14.8 177.279 14.544C177.375 14.288 177.455 14.056 177.519 13.848C177.599 13.64 177.639 13.536 177.639 13.536C177.783 13.424 177.855 13.28 177.855 13.104C177.871 12.88 177.975 12.584 178.167 12.216C178.375 11.832 178.703 11.296 179.151 10.608C179.695 9.904 180.183 9.352 180.615 8.952C181.063 8.552 181.583 8.304 182.175 8.208C182.239 8.176 182.383 8.16 182.607 8.16C182.831 8.16 182.983 8.16 183.063 8.16C183.399 8.176 183.631 8.24 183.759 8.352C183.887 8.464 184.023 8.656 184.167 8.928C184.295 9.136 184.311 9.424 184.215 9.792C184.135 10.144 184.031 10.416 183.903 10.608C183.823 10.736 183.703 10.88 183.543 11.04C183.399 11.2 183.255 11.344 183.111 11.472C182.983 11.584 182.887 11.64 182.823 11.64C182.743 11.64 182.663 11.616 182.583 11.568C182.519 11.504 182.455 11.464 182.391 11.448C182.247 11.384 182.223 11.272 182.319 11.112C182.415 10.936 182.519 10.768 182.631 10.608C182.791 10.368 182.895 10.176 182.943 10.032C182.991 9.888 183.007 9.76 182.991 9.648C182.975 9.536 182.943 9.4 182.895 9.24L183.111 9.456C182.999 9.392 182.871 9.368 182.727 9.384C182.583 9.4 182.423 9.44 182.247 9.504C181.943 9.664 181.695 9.84 181.503 10.032C181.311 10.208 181.151 10.36 181.023 10.488C180.639 10.824 180.327 11.232 180.087 11.712C179.847 12.192 179.623 12.64 179.415 13.056C179.351 13.184 179.239 13.424 179.079 13.776C178.935 14.112 178.799 14.432 178.671 14.736C178.559 15.024 178.447 15.28 178.335 15.504C178.223 15.712 178.167 15.84 178.167 15.888C178.119 16 178.143 16.056 178.239 16.056C178.351 16.056 178.567 16.048 178.887 16.032C179.671 15.936 180.255 15.912 180.639 15.96C181.039 15.992 181.271 16.136 181.335 16.392C181.607 16.776 181.567 17.016 181.215 17.112C180.879 17.192 180.255 17.296 179.343 17.424C179.087 17.44 178.831 17.456 178.575 17.472C178.319 17.472 178.151 17.48 178.071 17.496C178.007 17.512 177.943 17.536 177.879 17.568C177.815 17.6 177.743 17.76 177.663 18.048C177.647 18.224 177.615 18.44 177.567 18.696C177.535 18.936 177.511 19.168 177.495 19.392C177.431 19.584 177.383 19.784 177.351 19.992C177.335 20.2 177.287 20.384 177.207 20.544C177.111 21.424 177.047 22.24 177.015 22.992C176.983 23.728 176.935 24.36 176.871 24.888C176.823 25.416 176.695 25.824 176.487 26.112C176.375 26.24 176.255 26.336 176.127 26.4C176.015 26.48 175.911 26.48 175.815 26.4Z" fill="white"/>
</svg>
