<svg width="189" height="58" viewBox="0 0 189 58" fill="none" xmlns="http://www.w3.org/2000/svg">
<path fill-rule="evenodd" clip-rule="evenodd" d="M0.189453 0.305664H30.5302L33.0752 5.39578H42.2588C44.3346 5.39578 45.9752 5.91915 46.8344 7.20157C47.6885 8.47637 47.3559 9.87349 46.9734 10.6384L46.9466 10.692L41.1901 20.3381L38.1731 16.2564H35.2123L11.4991 31.2681V19.1293L2.7345 10.3647H10.2484L0.189453 0.305664ZM7.97624 3.53108L18.0352 13.5901H10.5214L14.7245 17.7933V25.4089L34.2772 13.031H39.8L40.9036 14.5241L44.1069 9.15643C44.1446 9.06857 44.1461 9.0136 44.1437 8.98857C44.062 8.91624 43.6456 8.6212 42.2588 8.6212H31.0818L28.5368 3.53108H7.97624Z" fill="#97AF8F"/>
<path d="M22.8008 6.88477H35.6606L26.0158 11.4776L22.8008 6.88477Z" fill="#97AF8F"/>
<path d="M183.933 37.5732C183.732 36.2965 182.589 35.4565 180.943 35.4565C179.33 35.4565 178.087 36.2293 178.121 37.338C178.087 38.1444 178.759 38.7827 180.472 39.1523L183.732 39.8243C187.259 40.5634 188.973 42.1425 189.006 44.7632C188.973 48.3582 185.747 50.7773 180.909 50.7773C175.97 50.7773 173.081 48.5598 172.678 44.9984H177.684C177.919 46.4431 179.095 47.1823 180.909 47.1823C182.724 47.1823 183.933 46.4431 183.933 45.2672C183.933 44.3264 183.16 43.7552 181.447 43.3857L178.423 42.7809C174.962 42.1089 173.148 40.2946 173.182 37.6068C173.148 34.1126 176.172 31.9287 180.876 31.9287C185.479 31.9287 188.334 34.1126 188.603 37.5732H183.933Z" fill="#97AF8F"/>
<path d="M165.388 37.5732C165.187 36.2965 164.044 35.4565 162.398 35.4565C160.785 35.4565 159.542 36.2293 159.576 37.338C159.542 38.1444 160.214 38.7827 161.928 39.1523L165.187 39.8243C168.714 40.5634 170.428 42.1425 170.461 44.7632C170.428 48.3582 167.202 50.7773 162.364 50.7773C157.425 50.7773 154.536 48.5598 154.133 44.9984H159.139C159.374 46.4431 160.55 47.1823 162.364 47.1823C164.179 47.1823 165.388 46.4431 165.388 45.2672C165.388 44.3264 164.615 43.7552 162.902 43.3857L159.878 42.7809C156.417 42.1089 154.603 40.2946 154.637 37.6068C154.603 34.1126 157.627 31.9287 162.331 31.9287C166.934 31.9287 169.79 34.1126 170.058 37.5732H165.388Z" fill="#97AF8F"/>
<path d="M134.914 45.3008C134.914 41.2354 138.207 39.8915 141.701 39.6899C143.011 39.6059 145.464 39.4883 146.237 39.4547V37.9764C146.203 36.4645 145.161 35.5573 143.314 35.5573C141.634 35.5573 140.559 36.3301 140.29 37.5732H135.552C135.855 34.415 138.61 31.9287 143.448 31.9287C147.413 31.9287 151.176 33.7094 151.176 38.1108V50.4077H146.472V47.8878H146.337C145.43 49.5677 143.717 50.7437 140.995 50.7437C137.501 50.7437 134.914 48.9294 134.914 45.3008ZM139.685 45.1664C139.685 46.5775 140.827 47.3167 142.406 47.3167C144.658 47.3167 146.27 45.8047 146.237 43.8896V42.5457C145.481 42.5793 143.364 42.6969 142.507 42.7809C140.794 42.9489 139.685 43.7553 139.685 45.1664Z" fill="#97AF8F"/>
<path d="M114.922 50.408V26.083H124.464C130.007 26.083 133.166 29.4764 133.166 34.2809C133.166 39.1527 129.94 42.4789 124.329 42.4789H119.962V50.408H114.922ZM119.962 38.4135H123.523C126.513 38.4135 127.958 36.7336 127.958 34.2809C127.958 31.8619 126.513 30.2156 123.523 30.2156H119.962V38.4135Z" fill="#97AF8F"/>
<path d="M103.332 50.7773C97.7551 50.7773 94.3281 47.1487 94.3281 41.3698C94.3281 35.7253 97.7887 31.9287 103.131 31.9287C107.935 31.9287 111.698 34.9525 111.698 41.1682V42.5793H99.2335C99.2335 45.3344 100.88 47.0479 103.433 47.0479C105.113 47.0479 106.323 46.3087 106.827 45.2H111.564C110.858 48.5598 107.835 50.7773 103.332 50.7773ZM99.2335 39.4547H106.995C106.995 37.2372 105.449 35.6581 103.232 35.6581C100.947 35.6581 99.3174 37.3548 99.2335 39.4547Z" fill="#97AF8F"/>
<path d="M91.203 26.083V50.408H86.2305V26.083H91.203Z" fill="#97AF8F"/>
<path d="M73.4953 57.6313C68.4556 57.6313 65.3646 55.3802 65.0622 51.9196H69.9675C70.2363 53.3643 71.6138 54.0363 73.5961 54.0363C75.9144 54.0363 77.4599 53.0619 77.4599 50.5085V47.1823H77.2247C76.5527 48.6606 74.94 50.1389 72.017 50.1389C67.8844 50.1389 64.5918 47.2495 64.5918 41.1682C64.5918 34.9861 67.9852 31.9287 72.017 31.9287C75.0744 31.9287 76.5527 33.743 77.2247 35.2213H77.4263V32.1639H82.3652V50.6093C82.3652 55.2458 78.6694 57.6313 73.4953 57.6313ZM73.5625 46.4095C76.0488 46.4095 77.4599 44.4608 77.4599 41.2354C77.4599 37.9764 76.0488 35.8933 73.5625 35.8933C71.0426 35.8933 69.6987 38.0772 69.6987 41.2354C69.6987 44.3936 71.0426 46.4095 73.5625 46.4095Z" fill="#97AF8F"/>
<path d="M45.2402 45.3008C45.2402 41.2354 48.5329 39.8915 52.0271 39.6899C53.3374 39.6059 55.79 39.4883 56.5628 39.4547V37.9764C56.5292 36.4645 55.4877 35.5573 53.6398 35.5573C51.9599 35.5573 50.8847 36.3301 50.6159 37.5732H45.8786C46.181 34.415 48.936 31.9287 53.7742 31.9287C57.7387 31.9287 61.5017 33.7094 61.5017 38.1108V50.4077H56.798V47.8878H56.6636C55.7564 49.5677 54.0429 50.7437 51.3215 50.7437C47.8273 50.7437 45.2402 48.9294 45.2402 45.3008ZM50.0112 45.1664C50.0112 46.5775 51.1535 47.3167 52.7326 47.3167C54.9837 47.3167 56.5964 45.8047 56.5628 43.8896V42.5457C55.8068 42.5793 53.6902 42.6969 52.8334 42.7809C51.1199 42.9489 50.0112 43.7553 50.0112 45.1664Z" fill="#97AF8F"/>
<path d="M25.9551 50.408V26.083H42.2838V30.2492H30.9948V36.1624H41.4438V40.3286H30.9948V46.2419H42.3174V50.408H25.9551Z" fill="#97AF8F"/>
</svg>
