<svg width="104" height="16" viewBox="0 0 104 16" fill="none" xmlns="http://www.w3.org/2000/svg">
<path d="M7.1096 5.71317L2.43164 1.03516H14.2676L15.4512 3.40234H20.1856C21.944 3.40234 21.9328 4.30413 21.7073 4.75502L19.622 8.24944L18.6638 6.95313H16.6911L6.63059 13.322V8.72852L3.61524 5.71317H7.1096Z" stroke="white" stroke-width="1.5"/>
<path d="M11.1367 3.34473H17.1173L12.6319 5.48065L11.1367 3.34473Z" fill="white"/>
<path d="M26.2773 11.6787V0.366211H33.8711V2.30371H28.6211V5.05371H33.4805V6.99121H28.6211V9.74121H33.8867V11.6787H26.2773ZM35.2461 9.30371C35.2461 7.41309 36.7773 6.78809 38.4023 6.69434C39.0117 6.65527 40.1523 6.60059 40.5117 6.58496V5.89746C40.4961 5.19434 40.0117 4.77246 39.1523 4.77246C38.3711 4.77246 37.8711 5.13184 37.7461 5.70996H35.543C35.6836 4.24121 36.9648 3.08496 39.2148 3.08496C41.0586 3.08496 42.8086 3.91309 42.8086 5.95996V11.6787H40.6211V10.5068H40.5586C40.1367 11.2881 39.3398 11.835 38.0742 11.835C36.4492 11.835 35.2461 10.9912 35.2461 9.30371ZM37.4648 9.24121C37.4648 9.89746 37.9961 10.2412 38.7305 10.2412C39.7773 10.2412 40.5273 9.53809 40.5117 8.64746V8.02246C40.1602 8.03809 39.1758 8.09277 38.7773 8.13184C37.9805 8.20996 37.4648 8.58496 37.4648 9.24121ZM48.3867 15.0381C46.043 15.0381 44.6055 13.9912 44.4648 12.3818H46.7461C46.8711 13.0537 47.5117 13.3662 48.4336 13.3662C49.5117 13.3662 50.2305 12.9131 50.2305 11.7256V10.1787H50.1211C49.8086 10.8662 49.0586 11.5537 47.6992 11.5537C45.7773 11.5537 44.2461 10.21 44.2461 7.38184C44.2461 4.50684 45.8242 3.08496 47.6992 3.08496C49.1211 3.08496 49.8086 3.92871 50.1211 4.61621H50.2148V3.19434H52.5117V11.7725C52.5117 13.9287 50.793 15.0381 48.3867 15.0381ZM48.418 9.81934C49.5742 9.81934 50.2305 8.91309 50.2305 7.41309C50.2305 5.89746 49.5742 4.92871 48.418 4.92871C47.2461 4.92871 46.6211 5.94434 46.6211 7.41309C46.6211 8.88184 47.2461 9.81934 48.418 9.81934ZM56.6211 0.366211V11.6787H54.3086V0.366211H56.6211ZM62.2617 11.8506C59.668 11.8506 58.0742 10.1631 58.0742 7.47559C58.0742 4.85059 59.6836 3.08496 62.168 3.08496C64.4023 3.08496 66.1523 4.49121 66.1523 7.38184V8.03809H60.3555C60.3555 9.31934 61.1211 10.1162 62.3086 10.1162C63.0898 10.1162 63.6523 9.77246 63.8867 9.25684H66.0898C65.7617 10.8193 64.3555 11.8506 62.2617 11.8506ZM60.3555 6.58496H63.9648C63.9648 5.55371 63.2461 4.81934 62.2148 4.81934C61.1523 4.81934 60.3945 5.6084 60.3555 6.58496ZM67.6523 11.6787V0.366211H72.0898C74.668 0.366211 76.1367 1.94434 76.1367 4.17871C76.1367 6.44434 74.6367 7.99121 72.0273 7.99121H69.9961V11.6787H67.6523ZM69.9961 6.10059H71.6523C73.043 6.10059 73.7148 5.31934 73.7148 4.17871C73.7148 3.05371 73.043 2.28809 71.6523 2.28809H69.9961V6.10059ZM76.9492 9.30371C76.9492 7.41309 78.4805 6.78809 80.1055 6.69434C80.7148 6.65527 81.8555 6.60059 82.2148 6.58496V5.89746C82.1992 5.19434 81.7148 4.77246 80.8555 4.77246C80.0742 4.77246 79.5742 5.13184 79.4492 5.70996H77.2461C77.3867 4.24121 78.668 3.08496 80.918 3.08496C82.7617 3.08496 84.5117 3.91309 84.5117 5.95996V11.6787H82.3242V10.5068H82.2617C81.8398 11.2881 81.043 11.835 79.7773 11.835C78.1523 11.835 76.9492 10.9912 76.9492 9.30371ZM79.168 9.24121C79.168 9.89746 79.6992 10.2412 80.4336 10.2412C81.4805 10.2412 82.2305 9.53809 82.2148 8.64746V8.02246C81.8633 8.03809 80.8789 8.09277 80.4805 8.13184C79.6836 8.20996 79.168 8.58496 79.168 9.24121ZM91.1211 5.70996C91.0273 5.11621 90.4961 4.72559 89.7305 4.72559C88.9805 4.72559 88.4023 5.08496 88.418 5.60059C88.4023 5.97559 88.7148 6.27246 89.5117 6.44434L91.0273 6.75684C92.668 7.10059 93.4648 7.83496 93.4805 9.05371C93.4648 10.7256 91.9648 11.8506 89.7148 11.8506C87.418 11.8506 86.0742 10.8193 85.8867 9.16309H88.2148C88.3242 9.83496 88.8711 10.1787 89.7148 10.1787C90.5586 10.1787 91.1211 9.83496 91.1211 9.28809C91.1211 8.85059 90.7617 8.58496 89.9648 8.41309L88.5586 8.13184C86.9492 7.81934 86.1055 6.97559 86.1211 5.72559C86.1055 4.10059 87.5117 3.08496 89.6992 3.08496C91.8398 3.08496 93.168 4.10059 93.293 5.70996H91.1211ZM99.7461 5.70996C99.6523 5.11621 99.1211 4.72559 98.3555 4.72559C97.6055 4.72559 97.0273 5.08496 97.043 5.60059C97.0273 5.97559 97.3398 6.27246 98.1367 6.44434L99.6523 6.75684C101.293 7.10059 102.09 7.83496 102.105 9.05371C102.09 10.7256 100.59 11.8506 98.3398 11.8506C96.043 11.8506 94.6992 10.8193 94.5117 9.16309H96.8398C96.9492 9.83496 97.4961 10.1787 98.3398 10.1787C99.1836 10.1787 99.7461 9.83496 99.7461 9.28809C99.7461 8.85059 99.3867 8.58496 98.5898 8.41309L97.1836 8.13184C95.5742 7.81934 94.7305 6.97559 94.7461 5.72559C94.7305 4.10059 96.1367 3.08496 98.3242 3.08496C100.465 3.08496 101.793 4.10059 101.918 5.70996H99.7461Z" fill="white"/>
</svg>
